<svg width="1320" height="278" viewBox="0 0 1320 278" fill="none" xmlns="http://www.w3.org/2000/svg">
<rect x="0.575916" y="0.575916" width="1318.85" height="276.848" rx="17.8534" stroke="#1B3042" stroke-width="1.15183"/>
<rect x="100.211" y="145.131" width="1127.64" height="13.822" rx="6.911" fill="#F5F6F8"/>
<rect x="120.943" y="145.131" width="258.01" height="13.822" rx="6.911" fill="#699CC8"/>
<path d="M76.6753 192.663C77.7002 191.778 78.5062 191.054 79.0935 190.489C79.6914 189.914 80.188 189.317 80.5832 188.698C80.9785 188.08 81.1765 187.462 81.1771 186.843C81.1777 186.203 81.0236 185.702 80.7146 185.339C80.4163 184.976 79.9418 184.794 79.2911 184.793C78.6618 184.793 78.1709 184.995 77.8185 185.4C77.4768 185.794 77.2949 186.327 77.2729 186.999L75.5129 186.997C75.5462 185.781 75.9098 184.854 76.6037 184.215C77.3084 183.565 78.1994 183.24 79.2767 183.241C80.4394 183.242 81.3457 183.563 81.9957 184.204C82.6564 184.845 82.9862 185.698 82.9852 186.765C82.9844 187.533 82.7863 188.274 82.391 188.988C82.0063 189.692 81.5416 190.326 80.9971 190.891C80.4632 191.445 79.7799 192.09 78.9471 192.825L78.2265 193.464L83.2985 193.469L83.297 194.989L75.521 194.981L75.5223 193.653L76.6753 192.663ZM84.9052 189.167C84.907 187.321 85.2178 185.882 85.8375 184.848C86.4678 183.803 87.5457 183.281 89.071 183.283C90.5964 183.284 91.6678 183.808 92.2855 184.854C92.9138 185.889 93.227 187.33 93.2252 189.175C93.2233 191.042 92.9072 192.503 92.2768 193.558C91.6571 194.603 90.5845 195.124 89.0592 195.123C87.5339 195.121 86.4571 194.598 85.8288 193.552C85.2112 192.495 84.9033 191.033 84.9052 189.167ZM91.4332 189.173C91.434 188.309 91.3761 187.579 91.2593 186.981C91.1533 186.384 90.9298 185.898 90.5888 185.524C90.2478 185.14 89.7414 184.948 89.0694 184.947C88.3974 184.946 87.8905 185.138 87.5488 185.521C87.2071 185.894 86.9773 186.38 86.8593 186.977C86.7521 187.574 86.698 188.305 86.6972 189.169C86.6963 190.065 86.7488 190.817 86.8549 191.425C86.961 192.033 87.1845 192.524 87.5254 192.897C87.8771 193.271 88.3889 193.458 89.0609 193.459C89.7329 193.46 90.2397 193.273 90.5814 192.9C90.9338 192.528 91.1636 192.037 91.2709 191.429C91.3782 190.821 91.4323 190.069 91.4332 189.173ZM106.252 192.9L101.596 192.895L100.793 195.167L98.8894 195.165L102.885 184.033L104.997 184.035L108.969 195.175L107.049 195.173L106.252 192.9ZM105.741 191.412L103.938 186.242L102.109 191.408L105.741 191.412ZM112.533 187.658C112.843 187.253 113.265 186.912 113.798 186.636C114.332 186.359 114.935 186.221 115.607 186.221C116.375 186.222 117.073 186.415 117.702 186.8C118.342 187.174 118.842 187.702 119.204 188.385C119.566 189.068 119.747 189.852 119.746 190.738C119.745 191.623 119.563 192.417 119.2 193.121C118.836 193.814 118.334 194.358 117.694 194.752C117.064 195.135 116.366 195.326 115.598 195.325C114.926 195.325 114.328 195.191 113.806 194.924C113.284 194.646 112.857 194.304 112.527 193.898L112.521 199.37L110.697 199.369L110.71 186.361L112.534 186.362L112.533 187.658ZM117.89 190.736C117.891 190.128 117.763 189.605 117.508 189.167C117.263 188.719 116.932 188.383 116.517 188.158C116.112 187.923 115.674 187.806 115.205 187.805C114.746 187.805 114.309 187.922 113.893 188.156C113.487 188.39 113.156 188.731 112.9 189.179C112.654 189.627 112.531 190.154 112.53 190.762C112.529 191.37 112.652 191.904 112.896 192.363C113.152 192.811 113.482 193.153 113.887 193.388C114.303 193.623 114.74 193.741 115.199 193.741C115.668 193.742 116.106 193.625 116.511 193.39C116.928 193.145 117.259 192.794 117.505 192.335C117.761 191.877 117.889 191.344 117.89 190.736ZM123.377 187.653C123.644 187.206 123.996 186.859 124.434 186.614C124.882 186.359 125.41 186.231 126.018 186.232L126.016 188.12L125.552 188.119C124.838 188.119 124.294 188.3 123.92 188.662C123.557 189.024 123.375 189.653 123.374 190.549L123.369 195.189L121.545 195.187L121.554 186.371L123.378 186.373L123.377 187.653ZM128.624 185.21C128.293 185.21 128.016 185.098 127.792 184.874C127.569 184.649 127.457 184.372 127.457 184.041C127.458 183.711 127.57 183.433 127.794 183.21C128.018 182.986 128.296 182.874 128.626 182.874C128.946 182.875 129.218 182.987 129.442 183.211C129.666 183.436 129.778 183.713 129.777 184.044C129.777 184.374 129.665 184.652 129.44 184.875C129.216 185.099 128.944 185.211 128.624 185.21ZM129.519 186.379L129.51 195.195L127.686 195.194L127.695 186.378L129.519 186.379ZM133.741 183.36L133.729 195.2L131.905 195.198L131.917 183.358L133.741 183.36ZM141.05 192.727C142.075 191.843 142.881 191.118 143.468 190.553C144.066 189.978 144.563 189.381 144.958 188.763C145.354 188.145 145.551 187.526 145.552 186.907C145.553 186.267 145.399 185.766 145.09 185.403C144.791 185.04 144.317 184.858 143.666 184.858C143.037 184.857 142.546 185.059 142.194 185.464C141.852 185.858 141.67 186.392 141.648 187.064L139.888 187.062C139.921 185.846 140.285 184.918 140.979 184.279C141.683 183.629 142.574 183.304 143.652 183.306C144.814 183.307 145.721 183.628 146.371 184.268C147.031 184.909 147.361 185.763 147.36 186.829C147.359 187.597 147.161 188.338 146.766 189.053C146.381 189.756 145.917 190.39 145.372 190.955C144.838 191.509 144.155 192.154 143.322 192.889L142.601 193.528L147.673 193.534L147.672 195.054L139.896 195.046L139.897 193.718L141.05 192.727ZM149.28 189.231C149.282 187.386 149.593 185.946 150.212 184.912C150.843 183.867 151.921 183.346 153.446 183.347C154.971 183.349 156.043 183.873 156.66 184.919C157.289 185.954 157.602 187.394 157.6 189.239C157.598 191.106 157.282 192.567 156.652 193.623C156.032 194.667 154.96 195.189 153.434 195.187C151.909 195.186 150.832 194.662 150.204 193.616C149.586 192.559 149.278 191.098 149.28 189.231ZM155.808 189.238C155.809 188.374 155.751 187.643 155.634 187.045C155.528 186.448 155.305 185.962 154.964 185.589C154.623 185.204 154.116 185.012 153.444 185.011C152.772 185.011 152.265 185.202 151.924 185.586C151.582 185.959 151.352 186.444 151.234 187.041C151.127 187.638 151.073 188.369 151.072 189.233C151.071 190.129 151.124 190.881 151.23 191.489C151.336 192.097 151.559 192.588 151.9 192.962C152.252 193.335 152.764 193.523 153.436 193.523C154.108 193.524 154.615 193.338 154.956 192.965C155.309 192.592 155.539 192.101 155.646 191.494C155.753 190.886 155.807 190.134 155.808 189.238ZM160.535 192.746C161.56 191.862 162.366 191.138 162.953 190.573C163.551 189.997 164.047 189.401 164.443 188.782C164.838 188.164 165.036 187.546 165.036 186.927C165.037 186.287 164.883 185.785 164.574 185.422C164.276 185.059 163.801 184.878 163.15 184.877C162.521 184.876 162.03 185.079 161.678 185.484C161.336 185.878 161.154 186.411 161.132 187.083L159.372 187.081C159.405 185.865 159.769 184.938 160.463 184.298C161.168 183.648 162.059 183.324 163.136 183.325C164.299 183.326 165.205 183.647 165.855 184.288C166.516 184.928 166.846 185.782 166.845 186.849C166.844 187.617 166.646 188.358 166.25 189.072C165.866 189.776 165.401 190.41 164.856 190.975C164.323 191.529 163.639 192.173 162.806 192.909L162.086 193.548L167.158 193.553L167.156 195.073L159.38 195.065L159.382 193.737L160.535 192.746ZM168.537 192.802L168.538 191.426L173.922 183.72L176.13 183.722L176.123 191.226L177.611 191.227L177.609 192.811L176.121 192.81L176.119 195.242L174.327 195.24L174.329 192.808L168.537 192.802ZM174.416 185.576L170.635 191.22L174.411 191.224L174.416 185.576Z" fill="#292929"/>
<path d="M92.1995 209.268L92.201 207.774L95.585 207.777L95.572 220.791L93.916 220.79L93.9275 209.27L92.1995 209.268ZM97.9651 209.274L97.9666 207.78L101.351 207.783L101.338 220.797L99.6816 220.796L99.6931 209.276L97.9651 209.274ZM104.943 220.909C104.631 220.908 104.367 220.8 104.151 220.584C103.936 220.368 103.828 220.104 103.828 219.792C103.829 219.48 103.937 219.216 104.153 219C104.369 218.784 104.633 218.676 104.945 218.677C105.245 218.677 105.497 218.785 105.701 219.002C105.917 219.218 106.025 219.482 106.024 219.794C106.024 220.106 105.916 220.37 105.699 220.586C105.495 220.801 105.243 220.909 104.943 220.909ZM104.951 213.205C104.639 213.204 104.375 213.096 104.159 212.88C103.943 212.664 103.836 212.4 103.836 212.088C103.836 211.776 103.945 211.512 104.161 211.296C104.377 211.08 104.641 210.972 104.953 210.973C105.253 210.973 105.505 211.081 105.709 211.298C105.925 211.514 106.032 211.778 106.032 212.09C106.032 212.402 105.923 212.666 105.707 212.882C105.503 213.097 105.251 213.205 104.951 213.205ZM107.99 214.162C107.992 212.098 108.33 210.49 109.003 209.339C109.676 208.176 110.852 207.595 112.532 207.596C114.2 207.598 115.37 208.181 116.041 209.346C116.712 210.499 117.046 212.107 117.044 214.171C117.042 216.271 116.704 217.903 116.031 219.066C115.358 220.229 114.187 220.81 112.519 220.808C110.839 220.807 109.664 220.224 108.993 219.059C108.322 217.894 107.988 216.262 107.99 214.162ZM115.424 214.169C115.425 213.125 115.354 212.243 115.211 211.523C115.079 210.791 114.798 210.203 114.366 209.758C113.947 209.314 113.335 209.091 112.531 209.09C111.715 209.09 111.091 209.311 110.658 209.755C110.238 210.198 109.955 210.786 109.811 211.518C109.678 212.238 109.611 213.119 109.61 214.163C109.609 215.243 109.674 216.15 109.805 216.882C109.948 217.614 110.23 218.202 110.649 218.647C111.081 219.091 111.705 219.314 112.521 219.314C113.325 219.315 113.937 219.094 114.357 218.65C114.79 218.207 115.072 217.619 115.205 216.887C115.35 216.155 115.423 215.249 115.424 214.169ZM119.293 214.173C119.295 212.109 119.632 210.501 120.305 209.35C120.979 208.187 122.155 207.606 123.835 207.608C125.503 207.609 126.673 208.193 127.343 209.357C128.014 210.51 128.349 212.118 128.347 214.182C128.345 216.282 128.007 217.914 127.334 219.077C126.661 220.241 125.49 220.821 123.822 220.82C122.142 220.818 120.967 220.235 120.296 219.07C119.625 217.905 119.291 216.273 119.293 214.173ZM126.727 214.181C126.728 213.137 126.657 212.254 126.513 211.534C126.382 210.802 126.101 210.214 125.669 209.77C125.249 209.325 124.638 209.102 123.834 209.102C123.018 209.101 122.393 209.322 121.961 209.766C121.541 210.209 121.258 210.797 121.113 211.529C120.981 212.249 120.914 213.131 120.913 214.175C120.912 215.255 120.977 216.161 121.108 216.893C121.251 217.625 121.533 218.213 121.952 218.658C122.384 219.102 123.007 219.325 123.823 219.326C124.627 219.326 125.24 219.105 125.66 218.662C126.093 218.218 126.375 217.63 126.508 216.898C126.653 216.166 126.726 215.261 126.727 214.181ZM143.076 218.049L137.604 218.043L136.594 220.832L134.866 220.831L139.414 208.361L141.304 208.363L145.81 220.842L144.082 220.84L143.076 218.049ZM142.61 216.716L140.348 210.378L138.074 216.712L142.61 216.716ZM160.525 208.4L160.512 220.856L158.874 220.855L158.884 211.567L154.734 220.851L153.582 220.849L149.434 211.539L149.424 220.845L147.786 220.844L147.799 208.388L149.563 208.389L154.161 218.69L158.779 208.399L160.525 208.4Z" fill="#292929"/>
<circle cx="125.549" cy="150.89" r="16.1257" fill="#1B3042"/>
<path d="M120.607 151.15L124.249 154.791L131.531 146.988" stroke="white" stroke-width="1.72775" stroke-linecap="round" stroke-linejoin="round"/>
<ellipse cx="138.794" cy="77.1731" rx="9.79058" ry="10.3665" fill="#FECB00"/>
<path d="M134.475 59.1279H120.077C118.486 59.1279 117.197 60.5031 117.197 62.1995V82.1646C117.197 83.8609 118.486 85.2361 120.077 85.2361H134.475C136.065 85.2361 137.354 83.8609 137.354 82.1646V62.1995C137.354 60.5031 136.065 59.1279 134.475 59.1279Z" stroke="#33363F" stroke-width="1.72775"/>
<path d="M122.957 66.8066H131.596" stroke="#33363F" stroke-width="1.72775" stroke-linecap="round"/>
<path d="M122.957 72.9482H131.596" stroke="#33363F" stroke-width="1.72775" stroke-linecap="round"/>
<path d="M122.957 79.0928H128.716" stroke="#33363F" stroke-width="1.72775" stroke-linecap="round"/>
<path d="M70.6173 119.956C69.324 119.956 68.1307 119.656 67.0373 119.056C65.9573 118.443 65.0973 117.596 64.4573 116.516C63.8307 115.423 63.5173 114.196 63.5173 112.836C63.5173 111.476 63.8307 110.256 64.4573 109.176C65.0973 108.096 65.9573 107.256 67.0373 106.656C68.1307 106.043 69.324 105.736 70.6173 105.736C71.924 105.736 73.1173 106.043 74.1973 106.656C75.2907 107.256 76.1507 108.096 76.7773 109.176C77.404 110.256 77.7173 111.476 77.7173 112.836C77.7173 114.196 77.404 115.423 76.7773 116.516C76.1507 117.596 75.2907 118.443 74.1973 119.056C73.1173 119.656 71.924 119.956 70.6173 119.956ZM70.6173 117.976C71.5373 117.976 72.3573 117.77 73.0773 117.356C73.7973 116.93 74.3573 116.33 74.7573 115.556C75.1707 114.77 75.3773 113.863 75.3773 112.836C75.3773 111.81 75.1707 110.91 74.7573 110.136C74.3573 109.363 73.7973 108.77 73.0773 108.356C72.3573 107.943 71.5373 107.736 70.6173 107.736C69.6973 107.736 68.8773 107.943 68.1573 108.356C67.4373 108.77 66.8707 109.363 66.4573 110.136C66.0573 110.91 65.8573 111.81 65.8573 112.836C65.8573 113.863 66.0573 114.77 66.4573 115.556C66.8707 116.33 67.4373 116.93 68.1573 117.356C68.8773 117.77 69.6973 117.976 70.6173 117.976ZM82.2409 110.396C82.5743 109.836 83.0143 109.403 83.5609 109.096C84.1209 108.776 84.7809 108.616 85.5409 108.616V110.976H84.9609C84.0676 110.976 83.3876 111.203 82.9209 111.656C82.4676 112.11 82.2409 112.896 82.2409 114.016V119.816H79.9609V108.796H82.2409V110.396ZM86.8767 114.256C86.8767 113.15 87.1034 112.17 87.5567 111.316C88.0234 110.463 88.6501 109.803 89.4367 109.336C90.2367 108.856 91.1234 108.616 92.0967 108.616C92.8167 108.616 93.5234 108.776 94.2167 109.096C94.9234 109.403 95.4834 109.816 95.8967 110.336V105.016H98.1967V119.816H95.8967V118.156C95.5234 118.69 95.0034 119.13 94.3367 119.476C93.6834 119.823 92.9301 119.996 92.0767 119.996C91.1167 119.996 90.2367 119.756 89.4367 119.276C88.6501 118.783 88.0234 118.103 87.5567 117.236C87.1034 116.356 86.8767 115.363 86.8767 114.256ZM95.8967 114.296C95.8967 113.536 95.7367 112.876 95.4167 112.316C95.1101 111.756 94.7034 111.33 94.1967 111.036C93.6901 110.743 93.1434 110.596 92.5567 110.596C91.9701 110.596 91.4234 110.743 90.9167 111.036C90.4101 111.316 89.9967 111.736 89.6767 112.296C89.3701 112.843 89.2167 113.496 89.2167 114.256C89.2167 115.016 89.3701 115.683 89.6767 116.256C89.9967 116.83 90.4101 117.27 90.9167 117.576C91.4367 117.87 91.9834 118.016 92.5567 118.016C93.1434 118.016 93.6901 117.87 94.1967 117.576C94.7034 117.283 95.1101 116.856 95.4167 116.296C95.7367 115.723 95.8967 115.056 95.8967 114.296ZM111.291 114.036C111.291 114.45 111.265 114.823 111.211 115.156H102.791C102.858 116.036 103.185 116.743 103.771 117.276C104.358 117.81 105.078 118.076 105.931 118.076C107.158 118.076 108.025 117.563 108.531 116.536H110.991C110.658 117.55 110.051 118.383 109.171 119.036C108.305 119.676 107.225 119.996 105.931 119.996C104.878 119.996 103.931 119.763 103.091 119.296C102.265 118.816 101.611 118.15 101.131 117.296C100.665 116.43 100.431 115.43 100.431 114.296C100.431 113.163 100.658 112.17 101.111 111.316C101.578 110.45 102.225 109.783 103.051 109.316C103.891 108.85 104.851 108.616 105.931 108.616C106.971 108.616 107.898 108.843 108.711 109.296C109.525 109.75 110.158 110.39 110.611 111.216C111.065 112.03 111.291 112.97 111.291 114.036ZM108.911 113.316C108.898 112.476 108.598 111.803 108.011 111.296C107.425 110.79 106.698 110.536 105.831 110.536C105.045 110.536 104.371 110.79 103.811 111.296C103.251 111.79 102.918 112.463 102.811 113.316H108.911ZM115.815 110.396C116.148 109.836 116.588 109.403 117.135 109.096C117.695 108.776 118.355 108.616 119.115 108.616V110.976H118.535C117.642 110.976 116.962 111.203 116.495 111.656C116.042 112.11 115.815 112.896 115.815 114.016V119.816H113.535V108.796H115.815V110.396ZM136.126 110.056C136.126 110.763 135.96 111.43 135.626 112.056C135.293 112.683 134.76 113.196 134.026 113.596C133.293 113.983 132.353 114.176 131.206 114.176H128.686V119.816H126.406V105.916H131.206C132.273 105.916 133.173 106.103 133.906 106.476C134.653 106.836 135.206 107.33 135.566 107.956C135.94 108.583 136.126 109.283 136.126 110.056ZM131.206 112.316C132.073 112.316 132.72 112.123 133.146 111.736C133.573 111.336 133.786 110.776 133.786 110.056C133.786 108.536 132.926 107.776 131.206 107.776H128.686V112.316H131.206ZM139.461 107.336C139.047 107.336 138.701 107.196 138.421 106.916C138.141 106.636 138.001 106.29 138.001 105.876C138.001 105.463 138.141 105.116 138.421 104.836C138.701 104.556 139.047 104.416 139.461 104.416C139.861 104.416 140.201 104.556 140.481 104.836C140.761 105.116 140.901 105.463 140.901 105.876C140.901 106.29 140.761 106.636 140.481 106.916C140.201 107.196 139.861 107.336 139.461 107.336ZM140.581 108.796V119.816H138.301V108.796H140.581ZM142.814 114.296C142.814 113.163 143.041 112.17 143.494 111.316C143.961 110.45 144.601 109.783 145.414 109.316C146.228 108.85 147.161 108.616 148.214 108.616C149.548 108.616 150.648 108.936 151.514 109.576C152.394 110.203 152.988 111.103 153.294 112.276H150.834C150.634 111.73 150.314 111.303 149.874 110.996C149.434 110.69 148.881 110.536 148.214 110.536C147.281 110.536 146.534 110.87 145.974 111.536C145.428 112.19 145.154 113.11 145.154 114.296C145.154 115.483 145.428 116.41 145.974 117.076C146.534 117.743 147.281 118.076 148.214 118.076C149.534 118.076 150.408 117.496 150.834 116.336H153.294C152.974 117.456 152.374 118.35 151.494 119.016C150.614 119.67 149.521 119.996 148.214 119.996C147.161 119.996 146.228 119.763 145.414 119.296C144.601 118.816 143.961 118.15 143.494 117.296C143.041 116.43 142.814 115.43 142.814 114.296ZM159.926 114.316L165.006 119.816H161.926L157.846 115.076V119.816H155.566V105.016H157.846V113.616L161.846 108.796H165.006L159.926 114.316ZM176.741 114.036C176.741 114.45 176.714 114.823 176.661 115.156H168.241C168.307 116.036 168.634 116.743 169.221 117.276C169.807 117.81 170.527 118.076 171.381 118.076C172.607 118.076 173.474 117.563 173.981 116.536H176.441C176.107 117.55 175.501 118.383 174.621 119.036C173.754 119.676 172.674 119.996 171.381 119.996C170.327 119.996 169.381 119.763 168.541 119.296C167.714 118.816 167.061 118.15 166.581 117.296C166.114 116.43 165.881 115.43 165.881 114.296C165.881 113.163 166.107 112.17 166.561 111.316C167.027 110.45 167.674 109.783 168.501 109.316C169.341 108.85 170.301 108.616 171.381 108.616C172.421 108.616 173.347 108.843 174.161 109.296C174.974 109.75 175.607 110.39 176.061 111.216C176.514 112.03 176.741 112.97 176.741 114.036ZM174.361 113.316C174.347 112.476 174.047 111.803 173.461 111.296C172.874 110.79 172.147 110.536 171.281 110.536C170.494 110.536 169.821 110.79 169.261 111.296C168.701 111.79 168.367 112.463 168.261 113.316H174.361ZM178.224 114.256C178.224 113.15 178.451 112.17 178.904 111.316C179.371 110.463 179.998 109.803 180.784 109.336C181.584 108.856 182.471 108.616 183.444 108.616C184.164 108.616 184.871 108.776 185.564 109.096C186.271 109.403 186.831 109.816 187.244 110.336V105.016H189.544V119.816H187.244V118.156C186.871 118.69 186.351 119.13 185.684 119.476C185.031 119.823 184.278 119.996 183.424 119.996C182.464 119.996 181.584 119.756 180.784 119.276C179.998 118.783 179.371 118.103 178.904 117.236C178.451 116.356 178.224 115.363 178.224 114.256ZM187.244 114.296C187.244 113.536 187.084 112.876 186.764 112.316C186.458 111.756 186.051 111.33 185.544 111.036C185.038 110.743 184.491 110.596 183.904 110.596C183.318 110.596 182.771 110.743 182.264 111.036C181.758 111.316 181.344 111.736 181.024 112.296C180.718 112.843 180.564 113.496 180.564 114.256C180.564 115.016 180.718 115.683 181.024 116.256C181.344 116.83 181.758 117.27 182.264 117.576C182.784 117.87 183.331 118.016 183.904 118.016C184.491 118.016 185.038 117.87 185.544 117.576C186.051 117.283 186.458 116.856 186.764 116.296C187.084 115.723 187.244 115.056 187.244 114.296Z" fill="#1B3042"/>
<path d="M338.158 192.663C339.183 191.778 339.989 191.054 340.576 190.489C341.174 189.914 341.67 189.317 342.066 188.698C342.461 188.08 342.659 187.462 342.66 186.843C342.66 186.203 342.506 185.702 342.197 185.339C341.899 184.976 341.424 184.794 340.774 184.793C340.144 184.793 339.653 184.995 339.301 185.4C338.959 185.794 338.777 186.327 338.755 186.999L336.995 186.997C337.029 185.781 337.392 184.854 338.086 184.215C338.791 183.565 339.682 183.24 340.759 183.241C341.922 183.242 342.828 183.563 343.478 184.204C344.139 184.845 344.469 185.698 344.468 186.765C344.467 187.533 344.269 188.274 343.873 188.988C343.489 189.692 343.024 190.326 342.479 190.891C341.946 191.445 341.262 192.09 340.43 192.825L339.709 193.464L344.781 193.469L344.779 194.989L337.003 194.981L337.005 193.653L338.158 192.663ZM346.388 189.167C346.389 187.321 346.7 185.882 347.32 184.848C347.95 183.803 349.028 183.281 350.553 183.283C352.079 183.284 353.15 183.808 353.768 184.854C354.396 185.889 354.709 187.33 354.708 189.175C354.706 191.042 354.39 192.503 353.759 193.558C353.139 194.603 352.067 195.124 350.542 195.123C349.016 195.121 347.939 194.598 347.311 193.552C346.694 192.495 346.386 191.033 346.388 189.167ZM352.916 189.173C352.916 188.309 352.859 187.579 352.742 186.981C352.636 186.384 352.412 185.898 352.071 185.524C351.73 185.14 351.224 184.948 350.552 184.947C349.88 184.946 349.373 185.138 349.031 185.521C348.69 185.894 348.46 186.38 348.342 186.977C348.235 187.574 348.18 188.305 348.18 189.169C348.179 190.065 348.231 190.817 348.337 191.425C348.443 192.033 348.667 192.524 349.008 192.897C349.359 193.271 349.871 193.458 350.543 193.459C351.215 193.46 351.722 193.273 352.064 192.9C352.416 192.528 352.646 192.037 352.753 191.429C352.861 190.821 352.915 190.069 352.916 189.173ZM367.734 192.9L363.078 192.895L362.276 195.167L360.372 195.165L364.367 184.033L366.479 184.035L370.452 195.175L368.532 195.173L367.734 192.9ZM367.224 191.412L365.421 186.242L363.592 191.408L367.224 191.412ZM374.016 187.658C374.325 187.253 374.747 186.912 375.281 186.636C375.814 186.359 376.417 186.221 377.089 186.221C377.857 186.222 378.556 186.415 379.184 186.8C379.824 187.174 380.325 187.702 380.687 188.385C381.049 189.068 381.229 189.852 381.229 190.738C381.228 191.623 381.046 192.417 380.682 193.121C380.319 193.814 379.817 194.358 379.177 194.752C378.547 195.135 377.848 195.326 377.08 195.325C376.408 195.325 375.811 195.191 375.288 194.924C374.766 194.646 374.34 194.304 374.009 193.898L374.004 199.37L372.18 199.369L372.193 186.361L374.017 186.362L374.016 187.658ZM379.373 190.736C379.373 190.128 379.246 189.605 378.99 189.167C378.745 188.719 378.415 188.383 377.999 188.158C377.594 187.923 377.157 187.806 376.687 187.805C376.229 187.805 375.791 187.922 375.375 188.156C374.97 188.39 374.639 188.731 374.382 189.179C374.136 189.627 374.013 190.154 374.012 190.762C374.012 191.37 374.134 191.904 374.379 192.363C374.634 192.811 374.965 193.153 375.37 193.388C375.786 193.623 376.223 193.741 376.682 193.741C377.151 193.742 377.588 193.625 377.994 193.39C378.41 193.145 378.741 192.794 378.987 192.335C379.243 191.877 379.372 191.344 379.373 190.736ZM384.859 187.653C385.126 187.206 385.479 186.859 385.916 186.614C386.365 186.359 386.893 186.231 387.501 186.232L387.499 188.12L387.035 188.119C386.32 188.119 385.776 188.3 385.402 188.662C385.039 189.024 384.857 189.653 384.856 190.549L384.852 195.189L383.028 195.187L383.037 186.371L384.861 186.373L384.859 187.653ZM390.106 185.21C389.776 185.21 389.499 185.098 389.275 184.874C389.051 184.649 388.939 184.372 388.94 184.041C388.94 183.711 389.052 183.433 389.276 183.21C389.501 182.986 389.778 182.874 390.109 182.874C390.429 182.875 390.701 182.987 390.924 183.211C391.148 183.436 391.26 183.713 391.26 184.044C391.259 184.374 391.147 184.652 390.923 184.875C390.699 185.099 390.426 185.211 390.106 185.21ZM391.001 186.379L390.992 195.195L389.168 195.194L389.177 186.378L391.001 186.379ZM395.223 183.36L395.211 195.2L393.387 195.198L393.399 183.358L395.223 183.36ZM402.533 192.727C403.558 191.843 404.364 191.118 404.951 190.553C405.549 189.978 406.045 189.381 406.441 188.763C406.836 188.145 407.034 187.526 407.034 186.907C407.035 186.267 406.881 185.766 406.572 185.403C406.274 185.04 405.799 184.858 405.149 184.858C404.519 184.857 404.028 185.059 403.676 185.464C403.334 185.858 403.152 186.392 403.13 187.064L401.37 187.062C401.404 185.846 401.767 184.918 402.461 184.279C403.166 183.629 404.057 183.304 405.134 183.306C406.297 183.307 407.203 183.628 407.853 184.268C408.514 184.909 408.844 185.763 408.843 186.829C408.842 187.597 408.644 188.338 408.248 189.053C407.864 189.756 407.399 190.39 406.854 190.955C406.321 191.509 405.637 192.154 404.805 192.889L404.084 193.528L409.156 193.534L409.154 195.054L401.378 195.046L401.38 193.718L402.533 192.727ZM410.763 189.231C410.764 187.386 411.075 185.946 411.695 184.912C412.325 183.867 413.403 183.346 414.928 183.347C416.454 183.349 417.525 183.873 418.143 184.919C418.771 185.954 419.084 187.394 419.083 189.239C419.081 191.106 418.765 192.567 418.134 193.623C417.514 194.667 416.442 195.189 414.917 195.187C413.391 195.186 412.314 194.662 411.686 193.616C411.069 192.559 410.761 191.098 410.763 189.231ZM417.291 189.238C417.291 188.374 417.233 187.643 417.117 187.045C417.011 186.448 416.787 185.962 416.446 185.589C416.105 185.204 415.599 185.012 414.927 185.011C414.255 185.011 413.748 185.202 413.406 185.586C413.064 185.959 412.835 186.444 412.717 187.041C412.609 187.638 412.555 188.369 412.555 189.233C412.554 190.129 412.606 190.881 412.712 191.489C412.818 192.097 413.042 192.588 413.383 192.962C413.734 193.335 414.246 193.523 414.918 193.523C415.59 193.524 416.097 193.338 416.439 192.965C416.791 192.592 417.021 192.101 417.128 191.494C417.236 190.886 417.29 190.134 417.291 189.238ZM422.017 192.746C423.042 191.862 423.848 191.138 424.435 190.573C425.033 189.997 425.53 189.401 425.925 188.782C426.32 188.164 426.518 187.546 426.519 186.927C426.519 186.287 426.365 185.785 426.056 185.422C425.758 185.059 425.284 184.878 424.633 184.877C424.004 184.876 423.513 185.079 423.16 185.484C422.819 185.878 422.637 186.411 422.615 187.083L420.855 187.081C420.888 185.865 421.252 184.938 421.945 184.298C422.65 183.648 423.541 183.324 424.618 183.325C425.781 183.326 426.687 183.647 427.337 184.288C427.998 184.928 428.328 185.782 428.327 186.849C428.326 187.617 428.128 188.358 427.733 189.072C427.348 189.776 426.883 190.41 426.339 190.975C425.805 191.529 425.122 192.173 424.289 192.909L423.568 193.548L428.64 193.553L428.639 195.073L420.863 195.065L420.864 193.737L422.017 192.746ZM430.019 192.802L430.021 191.426L435.404 183.72L437.612 183.722L437.605 191.226L439.093 191.227L439.091 192.811L437.603 192.81L437.601 195.242L435.809 195.24L435.811 192.808L430.019 192.802ZM435.899 185.576L432.117 191.22L435.893 191.224L435.899 185.576Z" fill="#292929"/>
<path d="M353.682 209.268L353.683 207.774L357.067 207.777L357.054 220.791L355.398 220.79L355.41 209.27L353.682 209.268ZM359.448 209.274L359.449 207.78L362.833 207.783L362.82 220.797L361.164 220.796L361.176 209.276L359.448 209.274ZM366.426 220.909C366.114 220.908 365.85 220.8 365.634 220.584C365.418 220.368 365.31 220.104 365.311 219.792C365.311 219.48 365.419 219.216 365.635 219C365.852 218.784 366.116 218.676 366.428 218.677C366.728 218.677 366.98 218.785 367.183 219.002C367.399 219.218 367.507 219.482 367.507 219.794C367.506 220.106 367.398 220.37 367.182 220.586C366.978 220.801 366.726 220.909 366.426 220.909ZM366.433 213.205C366.121 213.204 365.857 213.096 365.642 212.88C365.426 212.664 365.318 212.4 365.318 212.088C365.319 211.776 365.427 211.512 365.643 211.296C365.859 211.08 366.123 210.972 366.435 210.973C366.735 210.973 366.987 211.081 367.191 211.298C367.407 211.514 367.515 211.778 367.514 212.09C367.514 212.402 367.406 212.666 367.19 212.882C366.985 213.097 366.733 213.205 366.433 213.205ZM369.472 214.162C369.474 212.098 369.812 210.49 370.485 209.339C371.158 208.176 372.335 207.595 374.015 207.596C375.683 207.598 376.852 208.181 377.523 209.346C378.194 210.499 378.528 212.107 378.526 214.171C378.524 216.271 378.187 217.903 377.513 219.066C376.84 220.229 375.67 220.81 374.002 220.808C372.322 220.807 371.146 220.224 370.475 219.059C369.805 217.894 369.47 216.262 369.472 214.162ZM376.906 214.169C376.907 213.125 376.836 212.243 376.693 211.523C376.562 210.791 376.28 210.203 375.849 209.758C375.429 209.314 374.817 209.091 374.013 209.09C373.197 209.09 372.573 209.311 372.141 209.755C371.72 210.198 371.438 210.786 371.293 211.518C371.16 212.238 371.093 213.119 371.092 214.163C371.091 215.243 371.156 216.15 371.288 216.882C371.431 217.614 371.712 218.202 372.132 218.647C372.563 219.091 373.187 219.314 374.003 219.314C374.807 219.315 375.419 219.094 375.84 218.65C376.272 218.207 376.555 217.619 376.688 216.887C376.832 216.155 376.905 215.249 376.906 214.169ZM380.775 214.173C380.777 212.109 381.115 210.501 381.788 209.35C382.461 208.187 383.638 207.606 385.318 207.608C386.986 207.609 388.155 208.193 388.826 209.357C389.497 210.51 389.831 212.118 389.829 214.182C389.827 216.282 389.489 217.914 388.816 219.077C388.143 220.241 386.972 220.821 385.304 220.82C383.624 220.818 382.449 220.235 381.778 219.07C381.107 217.905 380.773 216.273 380.775 214.173ZM388.209 214.181C388.21 213.137 388.139 212.254 387.996 211.534C387.864 210.802 387.583 210.214 387.151 209.77C386.732 209.325 386.12 209.102 385.316 209.102C384.5 209.101 383.876 209.322 383.443 209.766C383.023 210.209 382.74 210.797 382.596 211.529C382.463 212.249 382.396 213.131 382.395 214.175C382.394 215.255 382.459 216.161 382.59 216.893C382.734 217.625 383.015 218.213 383.435 218.658C383.866 219.102 384.49 219.325 385.306 219.326C386.11 219.326 386.722 219.105 387.143 218.662C387.575 218.218 387.858 217.63 387.99 216.898C388.135 216.166 388.208 215.261 388.209 214.181ZM404.559 218.049L399.087 218.043L398.076 220.832L396.348 220.831L400.896 208.361L402.786 208.363L407.292 220.842L405.564 220.84L404.559 218.049ZM404.092 216.716L401.83 210.378L399.556 216.712L404.092 216.716ZM422.007 208.4L421.995 220.856L420.357 220.855L420.366 211.567L416.217 220.851L415.065 220.849L410.916 211.539L410.907 220.845L409.269 220.844L409.281 208.388L411.045 208.389L415.643 218.69L420.261 208.399L422.007 208.4Z" fill="#292929"/>
<circle cx="387.034" cy="150.89" r="16.1257" fill="#1B3042"/>
<path d="M382.09 151.15L385.731 154.791L393.014 146.988" stroke="white" stroke-width="1.72775" stroke-linecap="round" stroke-linejoin="round"/>
<ellipse cx="400.279" cy="77.1731" rx="9.79058" ry="10.3665" fill="#FECB00"/>
<path d="M395.957 59.1279H381.559C379.969 59.1279 378.68 60.5031 378.68 62.1995V82.1646C378.68 83.8609 379.969 85.2361 381.559 85.2361H395.957C397.548 85.2361 398.837 83.8609 398.837 82.1646V62.1995C398.837 60.5031 397.548 59.1279 395.957 59.1279Z" stroke="#33363F" stroke-width="1.72775"/>
<path d="M384.439 66.8066H393.078" stroke="#33363F" stroke-width="1.72775" stroke-linecap="round"/>
<path d="M384.439 72.9482H393.078" stroke="#33363F" stroke-width="1.72775" stroke-linecap="round"/>
<path d="M384.439 79.0928H390.199" stroke="#33363F" stroke-width="1.72775" stroke-linecap="round"/>
<path d="M361.206 116.976H355.386L354.386 119.816H352.006L356.986 105.896H359.626L364.606 119.816H362.206L361.206 116.976ZM360.566 115.116L358.306 108.656L356.026 115.116H360.566ZM366.011 114.296C366.011 113.163 366.238 112.17 366.691 111.316C367.158 110.45 367.798 109.783 368.611 109.316C369.425 108.85 370.358 108.616 371.411 108.616C372.745 108.616 373.845 108.936 374.711 109.576C375.591 110.203 376.185 111.103 376.491 112.276H374.031C373.831 111.73 373.511 111.303 373.071 110.996C372.631 110.69 372.078 110.536 371.411 110.536C370.478 110.536 369.731 110.87 369.171 111.536C368.625 112.19 368.351 113.11 368.351 114.296C368.351 115.483 368.625 116.41 369.171 117.076C369.731 117.743 370.478 118.076 371.411 118.076C372.731 118.076 373.605 117.496 374.031 116.336H376.491C376.171 117.456 375.571 118.35 374.691 119.016C373.811 119.67 372.718 119.996 371.411 119.996C370.358 119.996 369.425 119.763 368.611 119.296C367.798 118.816 367.158 118.15 366.691 117.296C366.238 116.43 366.011 115.43 366.011 114.296ZM378.004 114.296C378.004 113.163 378.23 112.17 378.684 111.316C379.15 110.45 379.79 109.783 380.604 109.316C381.417 108.85 382.35 108.616 383.404 108.616C384.737 108.616 385.837 108.936 386.704 109.576C387.584 110.203 388.177 111.103 388.484 112.276H386.024C385.824 111.73 385.504 111.303 385.064 110.996C384.624 110.69 384.07 110.536 383.404 110.536C382.47 110.536 381.724 110.87 381.164 111.536C380.617 112.19 380.344 113.11 380.344 114.296C380.344 115.483 380.617 116.41 381.164 117.076C381.724 117.743 382.47 118.076 383.404 118.076C384.724 118.076 385.597 117.496 386.024 116.336H388.484C388.164 117.456 387.564 118.35 386.684 119.016C385.804 119.67 384.71 119.996 383.404 119.996C382.35 119.996 381.417 119.763 380.604 119.296C379.79 118.816 379.15 118.15 378.684 117.296C378.23 116.43 378.004 115.43 378.004 114.296ZM400.856 114.036C400.856 114.45 400.829 114.823 400.776 115.156H392.356C392.423 116.036 392.749 116.743 393.336 117.276C393.923 117.81 394.643 118.076 395.496 118.076C396.723 118.076 397.589 117.563 398.096 116.536H400.556C400.223 117.55 399.616 118.383 398.736 119.036C397.869 119.676 396.789 119.996 395.496 119.996C394.443 119.996 393.496 119.763 392.656 119.296C391.829 118.816 391.176 118.15 390.696 117.296C390.229 116.43 389.996 115.43 389.996 114.296C389.996 113.163 390.223 112.17 390.676 111.316C391.143 110.45 391.789 109.783 392.616 109.316C393.456 108.85 394.416 108.616 395.496 108.616C396.536 108.616 397.463 108.843 398.276 109.296C399.089 109.75 399.723 110.39 400.176 111.216C400.629 112.03 400.856 112.97 400.856 114.036ZM398.476 113.316C398.463 112.476 398.163 111.803 397.576 111.296C396.989 110.79 396.263 110.536 395.396 110.536C394.609 110.536 393.936 110.79 393.376 111.296C392.816 111.79 392.483 112.463 392.376 113.316H398.476ZM405.38 110.416C405.766 109.91 406.293 109.483 406.96 109.136C407.626 108.79 408.38 108.616 409.22 108.616C410.18 108.616 411.053 108.856 411.84 109.336C412.64 109.803 413.266 110.463 413.72 111.316C414.173 112.17 414.4 113.15 414.4 114.256C414.4 115.363 414.173 116.356 413.72 117.236C413.266 118.103 412.64 118.783 411.84 119.276C411.053 119.756 410.18 119.996 409.22 119.996C408.38 119.996 407.633 119.83 406.98 119.496C406.326 119.15 405.793 118.723 405.38 118.216V125.056H403.1V108.796H405.38V110.416ZM412.08 114.256C412.08 113.496 411.92 112.843 411.6 112.296C411.293 111.736 410.88 111.316 410.36 111.036C409.853 110.743 409.306 110.596 408.72 110.596C408.146 110.596 407.6 110.743 407.08 111.036C406.573 111.33 406.16 111.756 405.84 112.316C405.533 112.876 405.38 113.536 405.38 114.296C405.38 115.056 405.533 115.723 405.84 116.296C406.16 116.856 406.573 117.283 407.08 117.576C407.6 117.87 408.146 118.016 408.72 118.016C409.306 118.016 409.853 117.87 410.36 117.576C410.88 117.27 411.293 116.83 411.6 116.256C411.92 115.683 412.08 115.016 412.08 114.256ZM419.314 110.656V116.756C419.314 117.17 419.408 117.47 419.594 117.656C419.794 117.83 420.128 117.916 420.594 117.916H421.994V119.816H420.194C419.168 119.816 418.381 119.576 417.834 119.096C417.288 118.616 417.014 117.836 417.014 116.756V110.656H415.714V108.796H417.014V106.056H419.314V108.796H421.994V110.656H419.314Z" fill="#1B3042"/>
<path d="M599.483 193.973C600.839 192.887 601.901 191.997 602.67 191.305C603.438 190.601 604.084 189.871 604.608 189.115C605.142 188.347 605.409 187.595 605.41 186.859C605.411 186.166 605.241 185.622 604.9 185.227C604.569 184.821 604.031 184.618 603.284 184.617C602.559 184.617 601.993 184.845 601.588 185.304C601.192 185.751 600.979 186.354 600.946 187.111L599.538 187.109C599.582 185.915 599.945 184.993 600.629 184.343C601.312 183.693 602.192 183.368 603.27 183.369C604.368 183.37 605.237 183.675 605.877 184.284C606.527 184.892 606.851 185.73 606.85 186.797C606.849 187.682 606.582 188.546 606.047 189.388C605.524 190.219 604.926 190.955 604.253 191.594C603.581 192.223 602.721 192.958 601.675 193.8L607.179 193.805L607.178 195.021L599.482 195.013L599.483 193.973ZM608.867 189.247C608.869 187.412 609.169 185.983 609.767 184.96C610.365 183.926 611.411 183.409 612.905 183.411C614.387 183.412 615.427 183.931 616.023 184.966C616.619 185.991 616.917 187.42 616.915 189.255C616.913 191.122 616.613 192.572 616.014 193.606C615.416 194.64 614.376 195.156 612.893 195.155C611.4 195.153 610.355 194.635 609.758 193.6C609.162 192.564 608.865 191.113 608.867 189.247ZM615.475 189.253C615.476 188.325 615.412 187.541 615.285 186.901C615.168 186.25 614.918 185.728 614.535 185.332C614.162 184.937 613.618 184.74 612.903 184.739C612.178 184.738 611.623 184.935 611.239 185.329C610.865 185.723 610.614 186.246 610.485 186.896C610.367 187.536 610.308 188.32 610.307 189.248C610.306 190.208 610.364 191.014 610.48 191.664C610.608 192.315 610.858 192.838 611.231 193.233C611.614 193.628 612.169 193.826 612.894 193.827C613.609 193.828 614.153 193.631 614.527 193.236C614.911 192.842 615.162 192.32 615.28 191.669C615.409 191.019 615.474 190.213 615.475 189.253ZM630.008 192.692L625.144 192.687L624.245 195.166L622.709 195.165L626.752 184.081L628.432 184.082L632.437 195.174L630.901 195.173L630.008 192.692ZM629.593 191.508L627.583 185.874L625.561 191.503L629.593 191.508ZM635.658 188.026C635.946 187.525 636.373 187.109 636.939 186.779C637.515 186.438 638.182 186.268 638.94 186.269C639.718 186.27 640.422 186.457 641.051 186.831C641.691 187.205 642.191 187.733 642.553 188.416C642.915 189.089 643.096 189.873 643.095 190.769C643.094 191.654 642.912 192.444 642.549 193.136C642.185 193.829 641.683 194.368 641.043 194.751C640.413 195.134 639.709 195.326 638.93 195.325C638.184 195.324 637.523 195.158 636.947 194.827C636.382 194.485 635.95 194.063 635.652 193.562L635.646 199.338L634.19 199.336L634.203 186.408L635.659 186.41L635.658 188.026ZM641.607 190.768C641.608 190.106 641.475 189.53 641.209 189.039C640.943 188.548 640.58 188.175 640.122 187.918C639.674 187.662 639.178 187.533 638.634 187.533C638.101 187.532 637.605 187.665 637.146 187.931C636.698 188.187 636.335 188.565 636.057 189.066C635.79 189.556 635.656 190.127 635.655 190.778C635.654 191.439 635.787 192.02 636.053 192.522C636.33 193.013 636.692 193.392 637.14 193.659C637.599 193.916 638.094 194.044 638.628 194.045C639.172 194.045 639.668 193.918 640.116 193.662C640.575 193.396 640.938 193.018 641.205 192.527C641.472 192.026 641.606 191.44 641.607 190.768ZM646.47 187.844C646.727 187.343 647.09 186.954 647.56 186.677C648.04 186.401 648.621 186.263 649.304 186.263L649.303 187.767L648.919 187.767C647.287 187.765 646.47 188.65 646.468 190.42L646.463 195.188L645.007 195.187L645.016 186.419L646.472 186.42L646.47 187.844ZM651.738 185.002C651.461 185.001 651.226 184.905 651.034 184.713C650.843 184.521 650.747 184.286 650.747 184.009C650.747 183.731 650.844 183.497 651.036 183.305C651.228 183.113 651.463 183.017 651.74 183.018C652.007 183.018 652.231 183.114 652.412 183.306C652.604 183.499 652.699 183.733 652.699 184.011C652.699 184.288 652.603 184.523 652.41 184.714C652.229 184.906 652.005 185.002 651.738 185.002ZM652.441 186.426L652.432 195.194L650.976 195.193L650.985 186.425L652.441 186.426ZM656.381 183.358L656.369 195.198L654.913 195.197L654.925 183.357L656.381 183.358ZM662.702 194.037C664.057 192.95 665.12 192.06 665.888 191.368C666.657 190.665 667.303 189.935 667.826 189.178C668.361 188.41 668.628 187.659 668.629 186.923C668.629 186.229 668.459 185.685 668.118 185.29C667.788 184.884 667.25 184.681 666.503 184.68C665.778 184.68 665.212 184.908 664.806 185.367C664.411 185.814 664.197 186.417 664.164 187.174L662.756 187.173C662.8 185.978 663.164 185.056 663.847 184.406C664.531 183.756 665.411 183.431 666.488 183.432C667.587 183.433 668.456 183.738 669.095 184.347C669.745 184.956 670.07 185.793 670.069 186.86C670.068 187.745 669.8 188.609 669.266 189.451C668.743 190.283 668.145 191.018 667.472 191.657C666.799 192.286 665.94 193.021 664.894 193.863L670.398 193.868L670.397 195.084L662.701 195.077L662.702 194.037ZM672.085 189.31C672.087 187.475 672.387 186.046 672.986 185.023C673.584 183.989 674.63 183.473 676.123 183.474C677.606 183.476 678.645 183.994 679.242 185.029C679.838 186.054 680.135 187.483 680.133 189.318C680.132 191.185 679.831 192.635 679.233 193.669C678.635 194.703 677.594 195.219 676.112 195.218C674.618 195.217 673.573 194.698 672.977 193.663C672.381 192.628 672.084 191.177 672.085 189.31ZM678.693 189.317C678.694 188.389 678.631 187.605 678.504 186.964C678.387 186.314 678.137 185.791 677.753 185.396C677.38 185.001 676.837 184.803 676.122 184.802C675.397 184.801 674.842 184.998 674.457 185.392C674.084 185.787 673.832 186.309 673.704 186.96C673.586 187.599 673.526 188.383 673.525 189.311C673.525 190.271 673.582 191.077 673.699 191.728C673.826 192.378 674.077 192.901 674.45 193.296C674.833 193.691 675.388 193.889 676.113 193.89C676.828 193.891 677.372 193.694 677.745 193.3C678.13 192.905 678.381 192.383 678.499 191.732C678.628 191.082 678.693 190.277 678.693 189.317ZM681.952 194.056C683.307 192.969 684.37 192.08 685.138 191.387C685.907 190.684 686.553 189.954 687.076 189.197C687.611 188.43 687.878 187.678 687.879 186.942C687.879 186.248 687.709 185.704 687.368 185.309C687.038 184.904 686.5 184.7 685.753 184.7C685.028 184.699 684.462 184.928 684.056 185.386C683.661 185.834 683.447 186.436 683.414 187.193L682.006 187.192C682.05 185.997 682.414 185.075 683.097 184.425C683.781 183.775 684.661 183.451 685.738 183.452C686.837 183.453 687.706 183.758 688.345 184.366C688.995 184.975 689.32 185.813 689.319 186.879C689.318 187.765 689.05 188.628 688.516 189.47C687.993 190.302 687.395 191.037 686.722 191.677C686.049 192.305 685.19 193.04 684.144 193.882L689.648 193.888L689.647 195.104L681.951 195.096L681.952 194.056ZM690.98 192.657L690.981 191.553L696.605 183.782L698.349 183.784L698.341 191.4L699.941 191.402L699.94 192.666L698.34 192.664L698.338 195.24L696.898 195.239L696.9 192.663L690.98 192.657ZM696.972 185.303L692.661 191.395L696.965 191.399L696.972 185.303Z" fill="#565656"/>
<path d="M615.16 209.266L615.162 207.772L618.546 207.775L618.533 220.789L616.877 220.788L616.888 209.268L615.16 209.266ZM620.926 209.272L620.928 207.778L624.312 207.781L624.299 220.795L622.643 220.794L622.654 209.274L620.926 209.272ZM627.904 220.907C627.592 220.907 627.328 220.798 627.112 220.582C626.897 220.366 626.789 220.102 626.789 219.79C626.789 219.478 626.898 219.214 627.114 218.998C627.33 218.782 627.594 218.675 627.906 218.675C628.206 218.675 628.458 218.783 628.662 219C628.878 219.216 628.985 219.48 628.985 219.792C628.985 220.104 628.877 220.368 628.66 220.584C628.456 220.799 628.204 220.907 627.904 220.907ZM627.912 213.203C627.6 213.203 627.336 213.094 627.12 212.878C626.904 212.662 626.797 212.398 626.797 212.086C626.797 211.774 626.905 211.51 627.122 211.294C627.338 211.078 627.602 210.971 627.914 210.971C628.214 210.971 628.466 211.079 628.67 211.296C628.885 211.512 628.993 211.776 628.993 212.088C628.993 212.4 628.884 212.664 628.668 212.88C628.464 213.095 628.212 213.203 627.912 213.203ZM630.951 214.16C630.953 212.096 631.291 210.488 631.964 209.337C632.637 208.174 633.813 207.593 635.493 207.594C637.161 207.596 638.331 208.179 639.002 209.344C639.673 210.497 640.007 212.105 640.005 214.169C640.003 216.269 639.665 217.901 638.992 219.064C638.319 220.227 637.148 220.808 635.48 220.806C633.8 220.805 632.625 220.222 631.954 219.057C631.283 217.892 630.949 216.26 630.951 214.16ZM638.385 214.167C638.386 213.123 638.315 212.241 638.171 211.521C638.04 210.789 637.759 210.201 637.327 209.756C636.908 209.312 636.296 209.089 635.492 209.088C634.676 209.088 634.052 209.309 633.619 209.753C633.199 210.196 632.916 210.784 632.771 211.516C632.639 212.236 632.572 213.118 632.571 214.162C632.57 215.242 632.635 216.148 632.766 216.88C632.909 217.612 633.191 218.2 633.61 218.645C634.042 219.089 634.666 219.312 635.482 219.312C636.286 219.313 636.898 219.092 637.318 218.648C637.751 218.205 638.033 217.617 638.166 216.885C638.311 216.153 638.384 215.247 638.385 214.167ZM642.254 214.171C642.256 212.107 642.593 210.5 643.266 209.348C643.94 208.185 645.116 207.604 646.796 207.606C648.464 207.607 649.634 208.191 650.304 209.355C650.975 210.508 651.31 212.116 651.308 214.18C651.305 216.28 650.968 217.912 650.295 219.075C649.622 220.239 648.451 220.819 646.783 220.818C645.103 220.816 643.928 220.233 643.257 219.068C642.586 217.904 642.251 216.271 642.254 214.171ZM649.688 214.179C649.689 213.135 649.617 212.253 649.474 211.532C649.343 210.8 649.062 210.212 648.63 209.768C648.21 209.323 647.599 209.101 646.795 209.1C645.979 209.099 645.354 209.32 644.922 209.764C644.502 210.207 644.219 210.795 644.074 211.527C643.941 212.247 643.875 213.129 643.874 214.173C643.872 215.253 643.938 216.159 644.069 216.891C644.212 217.623 644.494 218.211 644.913 218.656C645.345 219.1 645.968 219.323 646.784 219.324C647.588 219.325 648.201 219.103 648.621 218.66C649.054 218.216 649.336 217.628 649.469 216.896C649.614 216.165 649.686 215.259 649.688 214.179ZM666.037 218.047L660.565 218.041L659.554 220.83L657.826 220.829L662.375 208.359L664.265 208.361L668.77 220.84L667.042 220.838L666.037 218.047ZM665.571 216.714L663.309 210.376L661.035 216.71L665.571 216.714ZM683.486 208.398L683.473 220.854L681.835 220.853L681.845 211.565L677.695 220.849L676.543 220.847L672.395 211.537L672.385 220.843L670.747 220.842L670.76 208.386L672.524 208.387L677.122 218.688L681.74 208.397L683.486 208.398Z" fill="#565656"/>
<circle cx="648.51" cy="150.89" r="16.1257" fill="#868686"/>
<path d="M643.568 151.15L647.21 154.791L654.492 146.988" stroke="white" stroke-width="1.72775" stroke-linecap="round" stroke-linejoin="round"/>
<ellipse cx="661.757" cy="77.1731" rx="9.79058" ry="10.3665" fill="#FECB00"/>
<path d="M657.434 59.1279H643.036C641.445 59.1279 640.156 60.5031 640.156 62.1995V82.1646C640.156 83.8609 641.445 85.2361 643.036 85.2361H657.434C659.024 85.2361 660.313 83.8609 660.313 82.1646V62.1995C660.313 60.5031 659.024 59.1279 657.434 59.1279Z" stroke="#33363F" stroke-width="1.72775"/>
<path d="M645.916 66.8066H654.555" stroke="#33363F" stroke-width="1.72775" stroke-linecap="round"/>
<path d="M645.916 72.9482H654.555" stroke="#33363F" stroke-width="1.72775" stroke-linecap="round"/>
<path d="M645.916 79.0928H651.675" stroke="#33363F" stroke-width="1.72775" stroke-linecap="round"/>
<path d="M602.018 105.916V119.816H599.738V105.916H602.018ZM610.572 108.616C611.438 108.616 612.212 108.796 612.892 109.156C613.585 109.516 614.125 110.05 614.512 110.756C614.898 111.463 615.092 112.316 615.092 113.316V119.816H612.832V113.656C612.832 112.67 612.585 111.916 612.092 111.396C611.598 110.863 610.925 110.596 610.072 110.596C609.218 110.596 608.538 110.863 608.032 111.396C607.538 111.916 607.292 112.67 607.292 113.656V119.816H605.012V108.796H607.292V110.056C607.665 109.603 608.138 109.25 608.712 108.996C609.298 108.743 609.918 108.616 610.572 108.616ZM632.915 110.056C632.915 110.763 632.749 111.43 632.415 112.056C632.082 112.683 631.549 113.196 630.815 113.596C630.082 113.983 629.142 114.176 627.995 114.176H625.475V119.816H623.195V105.916H627.995C629.062 105.916 629.962 106.103 630.695 106.476C631.442 106.836 631.995 107.33 632.355 107.956C632.729 108.583 632.915 109.283 632.915 110.056ZM627.995 112.316C628.862 112.316 629.509 112.123 629.935 111.736C630.362 111.336 630.575 110.776 630.575 110.056C630.575 108.536 629.715 107.776 627.995 107.776H625.475V112.316H627.995ZM639.87 119.996C638.83 119.996 637.89 119.763 637.05 119.296C636.21 118.816 635.55 118.15 635.07 117.296C634.59 116.43 634.35 115.43 634.35 114.296C634.35 113.176 634.597 112.183 635.09 111.316C635.583 110.45 636.257 109.783 637.11 109.316C637.963 108.85 638.917 108.616 639.97 108.616C641.023 108.616 641.977 108.85 642.83 109.316C643.683 109.783 644.357 110.45 644.85 111.316C645.343 112.183 645.59 113.176 645.59 114.296C645.59 115.416 645.337 116.41 644.83 117.276C644.323 118.143 643.63 118.816 642.75 119.296C641.883 119.763 640.923 119.996 639.87 119.996ZM639.87 118.016C640.457 118.016 641.003 117.876 641.51 117.596C642.03 117.316 642.45 116.896 642.77 116.336C643.09 115.776 643.25 115.096 643.25 114.296C643.25 113.496 643.097 112.823 642.79 112.276C642.483 111.716 642.077 111.296 641.57 111.016C641.063 110.736 640.517 110.596 639.93 110.596C639.343 110.596 638.797 110.736 638.29 111.016C637.797 111.296 637.403 111.716 637.11 112.276C636.817 112.823 636.67 113.496 636.67 114.296C636.67 115.483 636.97 116.403 637.57 117.056C638.183 117.696 638.95 118.016 639.87 118.016ZM652.284 108.616C653.137 108.616 653.89 108.79 654.544 109.136C655.21 109.47 655.73 109.89 656.104 110.396V108.796H658.404V119.996C658.404 121.01 658.19 121.91 657.764 122.696C657.337 123.496 656.717 124.123 655.904 124.576C655.104 125.03 654.144 125.256 653.024 125.256C651.53 125.256 650.29 124.903 649.304 124.196C648.317 123.503 647.757 122.556 647.624 121.356H649.884C650.057 121.93 650.424 122.39 650.984 122.736C651.557 123.096 652.237 123.276 653.024 123.276C653.944 123.276 654.684 122.996 655.244 122.436C655.817 121.876 656.104 121.063 656.104 119.996V118.156C655.717 118.676 655.19 119.116 654.524 119.476C653.87 119.823 653.124 119.996 652.284 119.996C651.324 119.996 650.444 119.756 649.644 119.276C648.857 118.783 648.23 118.103 647.764 117.236C647.31 116.356 647.084 115.363 647.084 114.256C647.084 113.15 647.31 112.17 647.764 111.316C648.23 110.463 648.857 109.803 649.644 109.336C650.444 108.856 651.324 108.616 652.284 108.616ZM656.104 114.296C656.104 113.536 655.944 112.876 655.624 112.316C655.317 111.756 654.91 111.33 654.404 111.036C653.897 110.743 653.35 110.596 652.764 110.596C652.177 110.596 651.63 110.743 651.124 111.036C650.617 111.316 650.204 111.736 649.884 112.296C649.577 112.843 649.424 113.496 649.424 114.256C649.424 115.016 649.577 115.683 649.884 116.256C650.204 116.83 650.617 117.27 651.124 117.576C651.644 117.87 652.19 118.016 652.764 118.016C653.35 118.016 653.897 117.87 654.404 117.576C654.91 117.283 655.317 116.856 655.624 116.296C655.944 115.723 656.104 115.056 656.104 114.296ZM663.678 110.396C664.012 109.836 664.452 109.403 664.998 109.096C665.558 108.776 666.218 108.616 666.978 108.616V110.976H666.398C665.505 110.976 664.825 111.203 664.358 111.656C663.905 112.11 663.678 112.896 663.678 114.016V119.816H661.398V108.796H663.678V110.396ZM679.174 114.036C679.174 114.45 679.148 114.823 679.094 115.156H670.674C670.741 116.036 671.068 116.743 671.654 117.276C672.241 117.81 672.961 118.076 673.814 118.076C675.041 118.076 675.908 117.563 676.414 116.536H678.874C678.541 117.55 677.934 118.383 677.054 119.036C676.188 119.676 675.108 119.996 673.814 119.996C672.761 119.996 671.814 119.763 670.974 119.296C670.148 118.816 669.494 118.15 669.014 117.296C668.548 116.43 668.314 115.43 668.314 114.296C668.314 113.163 668.541 112.17 668.994 111.316C669.461 110.45 670.108 109.783 670.934 109.316C671.774 108.85 672.734 108.616 673.814 108.616C674.854 108.616 675.781 108.843 676.594 109.296C677.408 109.75 678.041 110.39 678.494 111.216C678.948 112.03 679.174 112.97 679.174 114.036ZM676.794 113.316C676.781 112.476 676.481 111.803 675.894 111.296C675.308 110.79 674.581 110.536 673.714 110.536C672.928 110.536 672.254 110.79 671.694 111.296C671.134 111.79 670.801 112.463 670.694 113.316H676.794ZM685.418 119.996C684.551 119.996 683.771 119.843 683.078 119.536C682.398 119.216 681.858 118.79 681.458 118.256C681.058 117.71 680.845 117.103 680.818 116.436H683.178C683.218 116.903 683.438 117.296 683.838 117.616C684.251 117.923 684.765 118.076 685.378 118.076C686.018 118.076 686.511 117.956 686.858 117.716C687.218 117.463 687.398 117.143 687.398 116.756C687.398 116.343 687.198 116.036 686.798 115.836C686.411 115.636 685.791 115.416 684.938 115.176C684.111 114.95 683.438 114.73 682.918 114.516C682.398 114.303 681.945 113.976 681.558 113.536C681.185 113.096 680.998 112.516 680.998 111.796C680.998 111.21 681.171 110.676 681.518 110.196C681.865 109.703 682.358 109.316 682.998 109.036C683.651 108.756 684.398 108.616 685.238 108.616C686.491 108.616 687.498 108.936 688.258 109.576C689.031 110.203 689.445 111.063 689.498 112.156H687.218C687.178 111.663 686.978 111.27 686.618 110.976C686.258 110.683 685.771 110.536 685.158 110.536C684.558 110.536 684.098 110.65 683.778 110.876C683.458 111.103 683.298 111.403 683.298 111.776C683.298 112.07 683.405 112.316 683.618 112.516C683.831 112.716 684.091 112.876 684.398 112.996C684.705 113.103 685.158 113.243 685.758 113.416C686.558 113.63 687.211 113.85 687.718 114.076C688.238 114.29 688.685 114.61 689.058 115.036C689.431 115.463 689.625 116.03 689.638 116.736C689.638 117.363 689.465 117.923 689.118 118.416C688.771 118.91 688.278 119.296 687.638 119.576C687.011 119.856 686.271 119.996 685.418 119.996ZM696.102 119.996C695.235 119.996 694.455 119.843 693.762 119.536C693.082 119.216 692.542 118.79 692.142 118.256C691.742 117.71 691.528 117.103 691.502 116.436H693.862C693.902 116.903 694.122 117.296 694.522 117.616C694.935 117.923 695.448 118.076 696.062 118.076C696.702 118.076 697.195 117.956 697.542 117.716C697.902 117.463 698.082 117.143 698.082 116.756C698.082 116.343 697.882 116.036 697.482 115.836C697.095 115.636 696.475 115.416 695.622 115.176C694.795 114.95 694.122 114.73 693.602 114.516C693.082 114.303 692.628 113.976 692.242 113.536C691.868 113.096 691.682 112.516 691.682 111.796C691.682 111.21 691.855 110.676 692.202 110.196C692.548 109.703 693.042 109.316 693.682 109.036C694.335 108.756 695.082 108.616 695.922 108.616C697.175 108.616 698.182 108.936 698.942 109.576C699.715 110.203 700.128 111.063 700.182 112.156H697.902C697.862 111.663 697.662 111.27 697.302 110.976C696.942 110.683 696.455 110.536 695.842 110.536C695.242 110.536 694.782 110.65 694.462 110.876C694.142 111.103 693.982 111.403 693.982 111.776C693.982 112.07 694.088 112.316 694.302 112.516C694.515 112.716 694.775 112.876 695.082 112.996C695.388 113.103 695.842 113.243 696.442 113.416C697.242 113.63 697.895 113.85 698.402 114.076C698.922 114.29 699.368 114.61 699.742 115.036C700.115 115.463 700.308 116.03 700.322 116.736C700.322 117.363 700.148 117.923 699.802 118.416C699.455 118.91 698.962 119.296 698.322 119.576C697.695 119.856 696.955 119.996 696.102 119.996Z" fill="#1B3042"/>
<path d="M860.965 193.973C862.321 192.887 863.383 191.997 864.152 191.305C864.921 190.601 865.567 189.871 866.09 189.115C866.624 188.347 866.892 187.595 866.892 186.859C866.893 186.166 866.723 185.622 866.382 185.227C866.052 184.821 865.513 184.618 864.767 184.617C864.041 184.617 863.476 184.845 863.07 185.304C862.675 185.751 862.461 186.354 862.428 187.111L861.02 187.109C861.064 185.915 861.428 184.993 862.111 184.343C862.794 183.693 863.675 183.368 864.752 183.369C865.851 183.37 866.72 183.675 867.359 184.284C868.009 184.892 868.334 185.73 868.333 186.797C868.332 187.682 868.064 188.546 867.53 189.388C867.006 190.219 866.408 190.955 865.736 191.594C865.063 192.223 864.204 192.958 863.158 193.8L868.662 193.805L868.66 195.021L860.964 195.013L860.965 193.973ZM870.349 189.247C870.351 187.412 870.651 185.983 871.249 184.96C871.848 183.926 872.894 183.409 874.387 183.411C875.87 183.412 876.909 183.931 877.505 184.966C878.102 185.991 878.399 187.42 878.397 189.255C878.395 191.122 878.095 192.572 877.497 193.606C876.898 194.64 875.858 195.156 874.375 195.155C872.882 195.153 871.837 194.635 871.241 193.6C870.645 192.564 870.347 191.113 870.349 189.247ZM876.957 189.253C876.958 188.325 876.895 187.541 876.768 186.901C876.651 186.25 876.401 185.728 876.017 185.332C875.644 184.937 875.1 184.74 874.386 184.739C873.66 184.738 873.105 184.935 872.721 185.329C872.347 185.723 872.096 186.246 871.968 186.896C871.85 187.536 871.79 188.32 871.789 189.248C871.788 190.208 871.846 191.014 871.963 191.664C872.09 192.315 872.34 192.838 872.713 193.233C873.097 193.628 873.651 193.826 874.377 193.827C875.091 193.828 875.635 193.631 876.009 193.236C876.394 192.842 876.645 192.32 876.763 191.669C876.891 191.019 876.956 190.213 876.957 189.253ZM891.49 192.692L886.626 192.687L885.728 195.166L884.192 195.165L888.235 184.081L889.915 184.082L893.92 195.174L892.384 195.173L891.49 192.692ZM891.075 191.508L889.065 185.874L887.043 191.503L891.075 191.508ZM897.14 188.026C897.429 187.525 897.856 187.109 898.421 186.779C898.998 186.438 899.665 186.268 900.422 186.269C901.201 186.27 901.904 186.457 902.533 186.831C903.173 187.205 903.674 187.733 904.036 188.416C904.398 189.089 904.578 189.873 904.577 190.769C904.577 191.654 904.394 192.444 904.031 193.136C903.668 193.829 903.166 194.368 902.525 194.751C901.896 195.134 901.192 195.326 900.413 195.325C899.666 195.324 899.005 195.158 898.429 194.827C897.864 194.485 897.433 194.063 897.135 193.562L897.129 199.338L895.673 199.336L895.686 186.408L897.142 186.41L897.14 188.026ZM903.089 190.768C903.09 190.106 902.957 189.53 902.691 189.039C902.425 188.548 902.063 188.175 901.604 187.918C901.157 187.662 900.661 187.533 900.117 187.533C899.583 187.532 899.087 187.665 898.628 187.931C898.18 188.187 897.817 188.565 897.539 189.066C897.272 189.556 897.138 190.127 897.137 190.778C897.137 191.439 897.27 192.02 897.536 192.522C897.813 193.013 898.175 193.392 898.623 193.659C899.081 193.916 899.577 194.044 900.11 194.045C900.654 194.045 901.15 193.918 901.599 193.662C902.057 193.396 902.421 193.018 902.688 192.527C902.955 192.026 903.089 191.44 903.089 190.768ZM907.953 187.844C908.209 187.343 908.572 186.954 909.042 186.677C909.522 186.401 910.104 186.263 910.786 186.263L910.785 187.767L910.401 187.767C908.769 187.765 907.952 188.65 907.95 190.42L907.946 195.188L906.49 195.187L906.498 186.419L907.954 186.42L907.953 187.844ZM913.22 185.002C912.943 185.001 912.709 184.905 912.517 184.713C912.325 184.521 912.229 184.286 912.229 184.009C912.23 183.731 912.326 183.497 912.518 183.305C912.71 183.113 912.945 183.017 913.222 183.018C913.489 183.018 913.713 183.114 913.894 183.306C914.086 183.499 914.182 183.733 914.181 184.011C914.181 184.288 914.085 184.523 913.893 184.714C913.711 184.906 913.487 185.002 913.22 185.002ZM913.923 186.426L913.914 195.194L912.458 195.193L912.467 186.425L913.923 186.426ZM917.864 183.358L917.852 195.198L916.396 195.197L916.408 183.357L917.864 183.358ZM924.184 194.037C925.54 192.95 926.602 192.06 927.371 191.368C928.139 190.665 928.785 189.935 929.309 189.178C929.843 188.41 930.11 187.659 930.111 186.923C930.112 186.229 929.942 185.685 929.601 185.29C929.271 184.884 928.732 184.681 927.985 184.68C927.26 184.68 926.695 184.908 926.289 185.367C925.894 185.814 925.68 186.417 925.647 187.174L924.239 187.173C924.283 185.978 924.646 185.056 925.33 184.406C926.013 183.756 926.893 183.431 927.971 183.432C929.069 183.433 929.938 183.738 930.578 184.347C931.228 184.956 931.552 185.793 931.551 186.86C931.55 187.745 931.283 188.609 930.749 189.451C930.225 190.283 929.627 191.018 928.954 191.657C928.282 192.286 927.422 193.021 926.376 193.863L931.88 193.868L931.879 195.084L924.183 195.077L924.184 194.037ZM933.568 189.31C933.57 187.475 933.87 186.046 934.468 185.023C935.067 183.989 936.112 183.473 937.606 183.474C939.088 183.476 940.128 183.994 940.724 185.029C941.32 186.054 941.618 187.483 941.616 189.318C941.614 191.185 941.314 192.635 940.716 193.669C940.117 194.703 939.077 195.219 937.594 195.218C936.101 195.217 935.056 194.698 934.46 193.663C933.863 192.628 933.566 191.177 933.568 189.31ZM940.176 189.317C940.177 188.389 940.114 187.605 939.986 186.964C939.87 186.314 939.619 185.791 939.236 185.396C938.863 185.001 938.319 184.803 937.604 184.802C936.879 184.801 936.324 184.998 935.94 185.392C935.566 185.787 935.315 186.309 935.186 186.96C935.068 187.599 935.009 188.383 935.008 189.311C935.007 190.271 935.065 191.077 935.181 191.728C935.309 192.378 935.559 192.901 935.932 193.296C936.316 193.691 936.87 193.889 937.595 193.89C938.31 193.891 938.854 193.694 939.228 193.3C939.612 192.905 939.864 192.383 939.981 191.732C940.11 191.082 940.175 190.277 940.176 189.317ZM943.434 194.056C944.79 192.969 945.852 192.08 946.621 191.387C947.389 190.684 948.035 189.954 948.559 189.197C949.093 188.43 949.36 187.678 949.361 186.942C949.362 186.248 949.192 185.704 948.851 185.309C948.521 184.904 947.982 184.7 947.235 184.7C946.51 184.699 945.944 184.928 945.539 185.386C945.144 185.834 944.93 186.436 944.897 187.193L943.489 187.192C943.533 185.997 943.896 185.075 944.58 184.425C945.263 183.775 946.143 183.451 947.221 183.452C948.319 183.453 949.188 183.758 949.828 184.366C950.478 184.975 950.802 185.813 950.801 186.879C950.8 187.765 950.533 188.628 949.999 189.47C949.475 190.302 948.877 191.037 948.204 191.677C947.532 192.305 946.672 193.04 945.626 193.882L951.13 193.888L951.129 195.104L943.433 195.096L943.434 194.056ZM952.463 192.657L952.464 191.553L958.087 183.782L959.831 183.784L959.824 191.4L961.424 191.402L961.423 192.666L959.823 192.664L959.82 195.24L958.38 195.239L958.383 192.663L952.463 192.657ZM958.454 185.303L954.144 191.395L958.448 191.399L958.454 185.303Z" fill="#565656"/>
<path d="M876.643 209.266L876.644 207.772L880.028 207.775L880.015 220.789L878.359 220.788L878.371 209.268L876.643 209.266ZM882.408 209.272L882.41 207.778L885.794 207.781L885.781 220.795L884.125 220.794L884.136 209.274L882.408 209.272ZM889.386 220.907C889.074 220.907 888.811 220.798 888.595 220.582C888.379 220.366 888.271 220.102 888.272 219.79C888.272 219.478 888.38 219.214 888.596 218.998C888.813 218.782 889.077 218.675 889.389 218.675C889.689 218.675 889.941 218.783 890.144 219C890.36 219.216 890.468 219.48 890.468 219.792C890.467 220.104 890.359 220.368 890.143 220.584C889.939 220.799 889.686 220.907 889.386 220.907ZM889.394 213.203C889.082 213.203 888.818 213.094 888.603 212.878C888.387 212.662 888.279 212.398 888.279 212.086C888.28 211.774 888.388 211.51 888.604 211.294C888.82 211.078 889.084 210.971 889.396 210.971C889.696 210.971 889.948 211.079 890.152 211.296C890.368 211.512 890.476 211.776 890.475 212.088C890.475 212.4 890.367 212.664 890.151 212.88C889.946 213.095 889.694 213.203 889.394 213.203ZM892.433 214.16C892.435 212.096 892.773 210.488 893.446 209.337C894.119 208.174 895.296 207.593 896.976 207.594C898.644 207.596 899.813 208.179 900.484 209.344C901.155 210.497 901.489 212.105 901.487 214.169C901.485 216.269 901.148 217.901 900.474 219.064C899.801 220.227 898.631 220.808 896.963 220.806C895.283 220.805 894.107 220.222 893.436 219.057C892.766 217.892 892.431 216.26 892.433 214.16ZM899.867 214.167C899.868 213.123 899.797 212.241 899.654 211.521C899.523 210.789 899.241 210.201 898.81 209.756C898.39 209.312 897.778 209.089 896.974 209.088C896.158 209.088 895.534 209.309 895.102 209.753C894.681 210.196 894.399 210.784 894.254 211.516C894.121 212.236 894.054 213.118 894.053 214.162C894.052 215.242 894.117 216.148 894.249 216.88C894.392 217.612 894.673 218.2 895.093 218.645C895.524 219.089 896.148 219.312 896.964 219.312C897.768 219.313 898.38 219.092 898.801 218.648C899.233 218.205 899.516 217.617 899.649 216.885C899.793 216.153 899.866 215.247 899.867 214.167ZM903.736 214.171C903.738 212.107 904.076 210.5 904.749 209.348C905.422 208.185 906.599 207.604 908.279 207.606C909.947 207.607 911.116 208.191 911.787 209.355C912.458 210.508 912.792 212.116 912.79 214.18C912.788 216.28 912.45 217.912 911.777 219.075C911.104 220.239 909.933 220.819 908.265 220.818C906.585 220.816 905.41 220.233 904.739 219.068C904.068 217.904 903.734 216.271 903.736 214.171ZM911.17 214.179C911.171 213.135 911.1 212.253 910.957 211.532C910.825 210.8 910.544 210.212 910.112 209.768C909.693 209.323 909.081 209.101 908.277 209.1C907.461 209.099 906.837 209.32 906.404 209.764C905.984 210.207 905.701 210.795 905.557 211.527C905.424 212.247 905.357 213.129 905.356 214.173C905.355 215.253 905.42 216.159 905.551 216.891C905.695 217.623 905.976 218.211 906.396 218.656C906.827 219.1 907.451 219.323 908.267 219.324C909.071 219.325 909.683 219.103 910.104 218.66C910.536 218.216 910.819 217.628 910.951 216.896C911.096 216.165 911.169 215.259 911.17 214.179ZM927.52 218.047L922.048 218.041L921.037 220.83L919.309 220.829L923.857 208.359L925.747 208.361L930.253 220.84L928.525 220.838L927.52 218.047ZM927.053 216.714L924.791 210.376L922.517 216.71L927.053 216.714ZM944.968 208.398L944.956 220.854L943.318 220.853L943.327 211.565L939.178 220.849L938.026 220.847L933.877 211.537L933.868 220.843L932.23 220.842L932.242 208.386L934.006 208.387L938.604 218.688L943.222 208.397L944.968 208.398Z" fill="#565656"/>
<circle cx="909.993" cy="150.89" r="16.1257" fill="#868686"/>
<path d="M905.051 151.15L908.692 154.791L915.975 146.988" stroke="white" stroke-width="1.72775" stroke-linecap="round" stroke-linejoin="round"/>
<ellipse cx="923.24" cy="77.1731" rx="9.79058" ry="10.3665" fill="#FECB00"/>
<path d="M918.918 59.1279H904.52C902.93 59.1279 901.641 60.5031 901.641 62.1995V82.1646C901.641 83.8609 902.93 85.2361 904.52 85.2361H918.918C920.508 85.2361 921.798 83.8609 921.798 82.1646V62.1995C921.798 60.5031 920.508 59.1279 918.918 59.1279Z" stroke="#33363F" stroke-width="1.72775"/>
<path d="M907.4 66.8066H916.039" stroke="#33363F" stroke-width="1.72775" stroke-linecap="round"/>
<path d="M907.4 72.9482H916.039" stroke="#33363F" stroke-width="1.72775" stroke-linecap="round"/>
<path d="M907.4 79.0928H913.16" stroke="#33363F" stroke-width="1.72775" stroke-linecap="round"/>
<path d="M859.063 119.956C857.769 119.956 856.576 119.656 855.483 119.056C854.403 118.443 853.543 117.596 852.903 116.516C852.276 115.423 851.963 114.196 851.963 112.836C851.963 111.476 852.276 110.256 852.903 109.176C853.543 108.096 854.403 107.256 855.483 106.656C856.576 106.043 857.769 105.736 859.063 105.736C860.369 105.736 861.563 106.043 862.643 106.656C863.736 107.256 864.596 108.096 865.223 109.176C865.849 110.256 866.163 111.476 866.163 112.836C866.163 114.196 865.849 115.423 865.223 116.516C864.596 117.596 863.736 118.443 862.643 119.056C861.563 119.656 860.369 119.956 859.063 119.956ZM859.063 117.976C859.983 117.976 860.803 117.77 861.523 117.356C862.243 116.93 862.803 116.33 863.203 115.556C863.616 114.77 863.823 113.863 863.823 112.836C863.823 111.81 863.616 110.91 863.203 110.136C862.803 109.363 862.243 108.77 861.523 108.356C860.803 107.943 859.983 107.736 859.063 107.736C858.143 107.736 857.323 107.943 856.603 108.356C855.883 108.77 855.316 109.363 854.903 110.136C854.503 110.91 854.303 111.81 854.303 112.836C854.303 113.863 854.503 114.77 854.903 115.556C855.316 116.33 855.883 116.93 856.603 117.356C857.323 117.77 858.143 117.976 859.063 117.976ZM873.966 108.616C874.833 108.616 875.606 108.796 876.286 109.156C876.98 109.516 877.52 110.05 877.906 110.756C878.293 111.463 878.486 112.316 878.486 113.316V119.816H876.226V113.656C876.226 112.67 875.98 111.916 875.486 111.396C874.993 110.863 874.32 110.596 873.466 110.596C872.613 110.596 871.933 110.863 871.426 111.396C870.933 111.916 870.686 112.67 870.686 113.656V119.816H868.406V108.796H870.686V110.056C871.06 109.603 871.533 109.25 872.106 108.996C872.693 108.743 873.313 108.616 873.966 108.616ZM895.57 105.916V107.776H891.87V119.816H889.59V107.776H885.87V105.916H895.57ZM903.579 108.616C904.419 108.616 905.166 108.796 905.819 109.156C906.486 109.516 907.006 110.05 907.379 110.756C907.766 111.463 907.959 112.316 907.959 113.316V119.816H905.699V113.656C905.699 112.67 905.452 111.916 904.959 111.396C904.466 110.863 903.792 110.596 902.939 110.596C902.086 110.596 901.406 110.863 900.899 111.396C900.406 111.916 900.159 112.67 900.159 113.656V119.816H897.879V105.016H900.159V110.076C900.546 109.61 901.032 109.25 901.619 108.996C902.219 108.743 902.872 108.616 903.579 108.616ZM920.967 114.036C920.967 114.45 920.941 114.823 920.887 115.156H912.467C912.534 116.036 912.861 116.743 913.447 117.276C914.034 117.81 914.754 118.076 915.607 118.076C916.834 118.076 917.701 117.563 918.207 116.536H920.667C920.334 117.55 919.727 118.383 918.847 119.036C917.981 119.676 916.901 119.996 915.607 119.996C914.554 119.996 913.607 119.763 912.767 119.296C911.941 118.816 911.287 118.15 910.807 117.296C910.341 116.43 910.107 115.43 910.107 114.296C910.107 113.163 910.334 112.17 910.787 111.316C911.254 110.45 911.901 109.783 912.727 109.316C913.567 108.85 914.527 108.616 915.607 108.616C916.647 108.616 917.574 108.843 918.387 109.296C919.201 109.75 919.834 110.39 920.287 111.216C920.741 112.03 920.967 112.97 920.967 114.036ZM918.587 113.316C918.574 112.476 918.274 111.803 917.687 111.296C917.101 110.79 916.374 110.536 915.507 110.536C914.721 110.536 914.047 110.79 913.487 111.296C912.927 111.79 912.594 112.463 912.487 113.316H918.587ZM946.506 105.916L942.386 119.816H939.806L936.886 109.296L933.786 119.816L931.226 119.836L927.286 105.916H929.706L932.586 117.236L935.706 105.916H938.266L941.166 117.176L944.066 105.916H946.506ZM947.627 114.256C947.627 113.15 947.853 112.17 948.307 111.316C948.773 110.463 949.4 109.803 950.187 109.336C950.987 108.856 951.867 108.616 952.827 108.616C953.693 108.616 954.447 108.79 955.087 109.136C955.74 109.47 956.26 109.89 956.647 110.396V108.796H958.947V119.816H956.647V118.176C956.26 118.696 955.733 119.13 955.067 119.476C954.4 119.823 953.64 119.996 952.787 119.996C951.84 119.996 950.973 119.756 950.187 119.276C949.4 118.783 948.773 118.103 948.307 117.236C947.853 116.356 947.627 115.363 947.627 114.256ZM956.647 114.296C956.647 113.536 956.487 112.876 956.167 112.316C955.86 111.756 955.453 111.33 954.947 111.036C954.44 110.743 953.893 110.596 953.307 110.596C952.72 110.596 952.173 110.743 951.667 111.036C951.16 111.316 950.747 111.736 950.427 112.296C950.12 112.843 949.967 113.496 949.967 114.256C949.967 115.016 950.12 115.683 950.427 116.256C950.747 116.83 951.16 117.27 951.667 117.576C952.187 117.87 952.733 118.016 953.307 118.016C953.893 118.016 954.44 117.87 954.947 117.576C955.453 117.283 955.86 116.856 956.167 116.296C956.487 115.723 956.647 115.056 956.647 114.296ZM971.861 108.796L965.101 124.996H962.741L964.981 119.636L960.641 108.796H963.181L966.281 117.196L969.501 108.796H971.861Z" fill="#1B3042"/>
<path d="M1117.33 185.175L1117.32 188.903L1121.39 188.907L1121.39 190.107L1117.32 190.103L1117.32 193.943L1121.86 193.948L1121.86 195.148L1115.86 195.142L1115.87 183.974L1121.87 183.98L1121.87 185.18L1117.33 185.175ZM1128.64 195.155L1126.56 191.889L1124.56 195.151L1123.04 195.149L1125.88 190.8L1123.05 186.381L1124.7 186.383L1126.77 189.633L1128.76 186.387L1130.28 186.388L1127.46 190.721L1130.29 195.156L1128.64 195.155ZM1133.18 188.007C1133.47 187.506 1133.9 187.091 1134.46 186.76C1135.04 186.42 1135.71 186.25 1136.46 186.25C1137.24 186.251 1137.95 186.439 1138.58 186.813C1139.22 187.187 1139.72 187.715 1140.08 188.398C1140.44 189.07 1140.62 189.855 1140.62 190.751C1140.62 191.636 1140.44 192.425 1140.07 193.118C1139.71 193.811 1139.21 194.349 1138.57 194.733C1137.94 195.116 1137.23 195.307 1136.46 195.306C1135.71 195.306 1135.05 195.14 1134.47 194.808C1133.91 194.467 1133.48 194.045 1133.18 193.543L1133.17 199.319L1131.72 199.318L1131.73 186.39L1133.18 186.391L1133.18 188.007ZM1139.13 190.749C1139.13 190.088 1139 189.512 1138.73 189.021C1138.47 188.53 1138.11 188.156 1137.65 187.9C1137.2 187.643 1136.7 187.515 1136.16 187.514C1135.63 187.514 1135.13 187.646 1134.67 187.913C1134.22 188.168 1133.86 188.547 1133.58 189.048C1133.31 189.538 1133.18 190.108 1133.18 190.759C1133.18 191.42 1133.31 192.002 1133.58 192.504C1133.86 192.994 1134.22 193.374 1134.67 193.641C1135.12 193.897 1135.62 194.026 1136.15 194.026C1136.7 194.027 1137.19 193.899 1137.64 193.644C1138.1 193.377 1138.46 192.999 1138.73 192.509C1139 192.008 1139.13 191.421 1139.13 190.749ZM1150.54 190.457C1150.54 190.734 1150.52 191.027 1150.49 191.336L1143.48 191.329C1143.53 192.194 1143.83 192.871 1144.36 193.362C1144.9 193.843 1145.56 194.084 1146.33 194.084C1146.95 194.085 1147.48 193.941 1147.89 193.654C1148.32 193.356 1148.62 192.961 1148.79 192.471L1150.36 192.472C1150.12 193.315 1149.65 194.002 1148.95 194.535C1148.24 195.057 1147.37 195.317 1146.32 195.316C1145.49 195.315 1144.75 195.128 1144.08 194.754C1143.43 194.38 1142.92 193.852 1142.55 193.169C1142.18 192.475 1141.99 191.675 1141.99 190.768C1141.99 189.861 1142.18 189.067 1142.54 188.385C1142.9 187.702 1143.41 187.18 1144.06 186.818C1144.72 186.445 1145.48 186.259 1146.33 186.26C1147.17 186.261 1147.9 186.443 1148.54 186.807C1149.18 187.17 1149.67 187.672 1150.01 188.312C1150.36 188.942 1150.54 189.657 1150.54 190.457ZM1149.03 190.151C1149.03 189.596 1148.91 189.122 1148.67 188.727C1148.42 188.321 1148.09 188.017 1147.66 187.814C1147.24 187.6 1146.78 187.493 1146.27 187.492C1145.53 187.491 1144.9 187.726 1144.38 188.194C1143.87 188.663 1143.57 189.314 1143.5 190.145L1149.03 190.151ZM1151.91 190.778C1151.92 189.871 1152.1 189.082 1152.46 188.41C1152.82 187.728 1153.33 187.201 1153.97 186.828C1154.62 186.455 1155.36 186.269 1156.19 186.27C1157.27 186.271 1158.15 186.533 1158.85 187.057C1159.55 187.58 1160.01 188.306 1160.24 189.234L1158.67 189.233C1158.52 188.699 1158.23 188.278 1157.79 187.968C1157.36 187.658 1156.83 187.503 1156.19 187.502C1155.36 187.501 1154.69 187.789 1154.17 188.364C1153.66 188.929 1153.4 189.734 1153.4 190.779C1153.4 191.835 1153.66 192.652 1154.17 193.228C1154.68 193.805 1155.35 194.093 1156.18 194.094C1156.82 194.095 1157.36 193.946 1157.78 193.648C1158.21 193.35 1158.5 192.923 1158.67 192.369L1160.23 192.37C1160 193.266 1159.53 193.985 1158.82 194.529C1158.12 195.061 1157.24 195.327 1156.18 195.326C1155.35 195.325 1154.61 195.138 1153.96 194.764C1153.32 194.39 1152.82 193.861 1152.46 193.178C1152.09 192.495 1151.91 191.695 1151.91 190.778ZM1163.96 187.622L1163.95 192.79C1163.95 193.217 1164.04 193.521 1164.22 193.702C1164.4 193.873 1164.72 193.959 1165.17 193.959L1166.24 193.96L1166.24 195.192L1164.93 195.191C1164.11 195.19 1163.51 195.003 1163.1 194.629C1162.7 194.255 1162.49 193.642 1162.5 192.788L1162.5 187.62L1161.36 187.619L1161.37 186.419L1162.5 186.42L1162.5 184.212L1163.96 184.214L1163.96 186.422L1166.25 186.424L1166.24 187.624L1163.96 187.622ZM1176.01 190.482C1176.01 190.759 1175.99 191.053 1175.96 191.362L1168.95 191.355C1169 192.219 1169.29 192.897 1169.83 193.388C1170.37 193.868 1171.03 194.109 1171.79 194.11C1172.42 194.11 1172.95 193.967 1173.36 193.679C1173.79 193.381 1174.09 192.987 1174.26 192.496L1175.83 192.498C1175.59 193.34 1175.12 194.028 1174.42 194.56C1173.71 195.082 1172.84 195.343 1171.79 195.342C1170.96 195.341 1170.21 195.154 1169.55 194.78C1168.9 194.406 1168.39 193.877 1168.02 193.194C1167.65 192.5 1167.46 191.7 1167.46 190.793C1167.46 189.887 1167.64 189.092 1168.01 188.41C1168.37 187.728 1168.88 187.205 1169.53 186.843C1170.19 186.471 1170.95 186.285 1171.8 186.286C1172.63 186.287 1173.37 186.469 1174.01 186.832C1174.65 187.195 1175.14 187.697 1175.48 188.337C1175.83 188.967 1176.01 189.682 1176.01 190.482ZM1174.5 190.176C1174.5 189.622 1174.38 189.147 1174.14 188.752C1173.89 188.347 1173.56 188.042 1173.13 187.839C1172.71 187.625 1172.25 187.518 1171.74 187.518C1171 187.517 1170.37 187.751 1169.85 188.22C1169.34 188.689 1169.04 189.339 1168.97 190.171L1174.5 190.176ZM1177.38 190.787C1177.38 189.891 1177.57 189.108 1177.93 188.436C1178.29 187.754 1178.79 187.226 1179.42 186.853C1180.06 186.481 1180.77 186.295 1181.56 186.296C1182.25 186.296 1182.88 186.457 1183.47 186.777C1184.05 187.087 1184.5 187.498 1184.81 188.011L1184.81 183.371L1186.29 183.372L1186.28 195.212L1184.8 195.211L1184.8 193.563C1184.52 194.085 1184.09 194.517 1183.52 194.857C1182.96 195.188 1182.3 195.352 1181.54 195.351C1180.76 195.351 1180.05 195.158 1179.41 194.773C1178.78 194.389 1178.29 193.85 1177.93 193.156C1177.56 192.462 1177.38 191.673 1177.38 190.787ZM1184.81 190.811C1184.81 190.149 1184.68 189.573 1184.41 189.082C1184.14 188.591 1183.78 188.218 1183.32 187.961C1182.87 187.694 1182.38 187.56 1181.83 187.56C1181.29 187.559 1180.79 187.687 1180.35 187.942C1179.9 188.198 1179.54 188.571 1179.27 189.061C1179.01 189.552 1178.87 190.127 1178.87 190.789C1178.87 191.461 1179 192.048 1179.27 192.549C1179.54 193.04 1179.89 193.419 1180.34 193.686C1180.79 193.943 1181.28 194.071 1181.83 194.072C1182.37 194.072 1182.87 193.945 1183.32 193.689C1183.78 193.423 1184.14 193.045 1184.41 192.554C1184.67 192.053 1184.81 191.472 1184.81 190.811ZM1196.48 184.07C1197.7 184.072 1198.75 184.302 1199.64 184.762C1200.53 185.21 1201.21 185.856 1201.68 186.7C1202.16 187.543 1202.4 188.535 1202.4 189.676C1202.4 190.818 1202.16 191.809 1201.68 192.652C1201.21 193.483 1200.52 194.122 1199.63 194.57C1198.74 195.006 1197.69 195.224 1196.47 195.222L1193 195.219L1193.01 184.067L1196.48 184.07ZM1196.47 194.022C1197.91 194.024 1199.01 193.646 1199.77 192.89C1200.53 192.122 1200.91 191.051 1200.91 189.675C1200.91 188.288 1200.53 187.205 1199.76 186.426C1199.01 185.646 1197.91 185.256 1196.48 185.254L1194.47 185.252L1194.46 194.02L1196.47 194.022ZM1203.77 190.814C1203.78 189.918 1203.96 189.134 1204.32 188.462C1204.68 187.78 1205.18 187.252 1205.81 186.88C1206.45 186.507 1207.16 186.321 1207.94 186.322C1208.71 186.323 1209.37 186.489 1209.94 186.82C1210.5 187.151 1210.92 187.568 1211.2 188.069L1211.2 186.469L1212.67 186.471L1212.67 195.239L1211.19 195.237L1211.2 193.605C1210.91 194.117 1210.47 194.543 1209.9 194.884C1209.33 195.214 1208.67 195.379 1207.91 195.378C1207.13 195.377 1206.43 195.184 1205.8 194.8C1205.17 194.415 1204.68 193.876 1204.32 193.182C1203.95 192.489 1203.77 191.699 1203.77 190.814ZM1211.2 190.837C1211.2 190.176 1211.07 189.6 1210.8 189.109C1210.53 188.618 1210.17 188.244 1209.71 187.988C1209.27 187.721 1208.77 187.587 1208.23 187.586C1207.68 187.586 1207.19 187.713 1206.74 187.969C1206.29 188.224 1205.93 188.597 1205.66 189.088C1205.4 189.578 1205.26 190.154 1205.26 190.815C1205.26 191.487 1205.39 192.074 1205.66 192.576C1205.93 193.067 1206.28 193.446 1206.73 193.713C1207.18 193.969 1207.67 194.098 1208.22 194.098C1208.76 194.099 1209.26 193.971 1209.71 193.716C1210.17 193.449 1210.53 193.071 1210.8 192.581C1211.06 192.08 1211.2 191.498 1211.2 190.837ZM1216.91 187.675L1216.9 192.843C1216.9 193.269 1216.99 193.574 1217.18 193.755C1217.36 193.926 1217.67 194.012 1218.12 194.012L1219.19 194.013L1219.19 195.245L1217.88 195.244C1217.07 195.243 1216.46 195.056 1216.05 194.682C1215.65 194.308 1215.45 193.695 1215.45 192.841L1215.45 187.673L1214.32 187.672L1214.32 186.472L1215.45 186.473L1215.46 184.265L1216.91 184.267L1216.91 186.475L1219.2 186.477L1219.2 187.677L1216.91 187.675ZM1228.96 190.535C1228.96 190.812 1228.94 191.106 1228.91 191.415L1221.9 191.408C1221.95 192.272 1222.25 192.949 1222.78 193.441C1223.32 193.921 1223.98 194.162 1224.75 194.163C1225.38 194.163 1225.9 194.02 1226.32 193.732C1226.74 193.434 1227.04 193.04 1227.21 192.549L1228.78 192.551C1228.55 193.393 1228.08 194.081 1227.37 194.613C1226.67 195.135 1225.79 195.396 1224.75 195.395C1223.91 195.394 1223.17 195.206 1222.51 194.832C1221.86 194.458 1221.34 193.93 1220.97 193.247C1220.6 192.553 1220.41 191.753 1220.41 190.846C1220.42 189.94 1220.6 189.145 1220.96 188.463C1221.32 187.781 1221.83 187.258 1222.48 186.896C1223.14 186.524 1223.9 186.338 1224.76 186.339C1225.59 186.339 1226.32 186.522 1226.96 186.885C1227.6 187.248 1228.09 187.75 1228.43 188.39C1228.78 189.02 1228.96 189.735 1228.96 190.535ZM1227.46 190.229C1227.46 189.675 1227.33 189.2 1227.09 188.805C1226.84 188.399 1226.51 188.095 1226.08 187.892C1225.67 187.678 1225.2 187.571 1224.69 187.571C1223.95 187.57 1223.32 187.804 1222.8 188.273C1222.29 188.742 1221.99 189.392 1221.92 190.224L1227.46 190.229Z" fill="#565656"/>
<path d="M1140.39 219.488C1141.91 218.266 1143.11 217.265 1143.97 216.486C1144.84 215.694 1145.56 214.873 1146.15 214.022C1146.75 213.158 1147.05 212.313 1147.05 211.485C1147.05 210.705 1146.86 210.093 1146.48 209.648C1146.11 209.192 1145.5 208.963 1144.66 208.962C1143.85 208.962 1143.21 209.219 1142.75 209.734C1142.31 210.238 1142.07 210.916 1142.03 211.768L1140.45 211.766C1140.5 210.422 1140.91 209.385 1141.68 208.653C1142.44 207.922 1143.43 207.557 1144.65 207.558C1145.88 207.56 1146.86 207.903 1147.58 208.587C1148.31 209.272 1148.68 210.214 1148.67 211.414C1148.67 212.41 1148.37 213.382 1147.77 214.329C1147.18 215.265 1146.51 216.092 1145.75 216.811C1145 217.519 1144.03 218.346 1142.85 219.293L1149.04 219.299L1149.04 220.667L1140.39 220.658L1140.39 219.488ZM1150.94 214.171C1150.95 212.107 1151.28 210.499 1151.96 209.348C1152.63 208.184 1153.81 207.603 1155.49 207.605C1157.15 207.607 1158.32 208.19 1158.99 209.355C1159.66 210.507 1160 212.116 1160 214.18C1159.99 216.28 1159.66 217.911 1158.98 219.075C1158.31 220.238 1157.14 220.819 1155.47 220.817C1153.79 220.815 1152.62 220.232 1151.95 219.068C1151.28 217.903 1150.94 216.271 1150.94 214.171ZM1158.38 214.178C1158.38 213.134 1158.31 212.252 1158.16 211.532C1158.03 210.8 1157.75 210.211 1157.32 209.767C1156.9 209.323 1156.29 209.1 1155.48 209.099C1154.67 209.098 1154.04 209.32 1153.61 209.763C1153.19 210.207 1152.91 210.795 1152.76 211.526C1152.63 212.246 1152.56 213.128 1152.56 214.172C1152.56 215.252 1152.63 216.158 1152.76 216.89C1152.9 217.623 1153.18 218.211 1153.6 218.655C1154.03 219.1 1154.66 219.322 1155.47 219.323C1156.28 219.324 1156.89 219.103 1157.31 218.659C1157.74 218.215 1158.03 217.628 1158.16 216.896C1158.3 216.164 1158.38 215.258 1158.38 214.178ZM1174.73 218.046L1169.25 218.041L1168.24 220.83L1166.52 220.828L1171.06 208.359L1172.95 208.361L1177.46 220.839L1175.73 220.837L1174.73 218.046ZM1174.26 216.714L1172 210.376L1169.72 216.709L1174.26 216.714ZM1181.08 212.797C1181.41 212.233 1181.89 211.766 1182.52 211.394C1183.17 211.011 1183.92 210.82 1184.77 210.82C1185.65 210.821 1186.44 211.032 1187.15 211.453C1187.87 211.873 1188.43 212.468 1188.84 213.236C1189.25 213.993 1189.45 214.875 1189.45 215.883C1189.45 216.879 1189.24 217.767 1188.84 218.546C1188.43 219.326 1187.86 219.931 1187.14 220.363C1186.43 220.794 1185.64 221.009 1184.76 221.008C1183.92 221.008 1183.18 220.821 1182.53 220.448C1181.9 220.064 1181.41 219.589 1181.08 219.025L1181.07 225.523L1179.43 225.521L1179.45 210.977L1181.08 210.979L1181.08 212.797ZM1187.78 215.881C1187.78 215.137 1187.63 214.489 1187.33 213.937C1187.03 213.385 1186.62 212.964 1186.11 212.676C1185.6 212.387 1185.04 212.243 1184.43 212.242C1183.83 212.241 1183.27 212.391 1182.76 212.69C1182.25 212.978 1181.84 213.403 1181.53 213.967C1181.23 214.519 1181.08 215.161 1181.08 215.893C1181.08 216.637 1181.23 217.291 1181.53 217.855C1181.84 218.407 1182.25 218.834 1182.75 219.134C1183.27 219.423 1183.82 219.567 1184.42 219.568C1185.04 219.569 1185.59 219.425 1186.1 219.138C1186.61 218.838 1187.02 218.413 1187.32 217.861C1187.62 217.297 1187.78 216.637 1187.78 215.881ZM1193.25 212.593C1193.54 212.029 1193.94 211.592 1194.47 211.28C1195.01 210.969 1195.67 210.813 1196.43 210.814L1196.43 212.506L1196 212.506C1194.17 212.504 1193.25 213.499 1193.24 215.491L1193.24 220.855L1191.6 220.853L1191.61 210.989L1193.25 210.991L1193.25 212.593ZM1199.17 209.395C1198.86 209.394 1198.6 209.286 1198.38 209.07C1198.17 208.854 1198.06 208.59 1198.06 208.278C1198.06 207.966 1198.17 207.702 1198.38 207.486C1198.6 207.27 1198.86 207.162 1199.18 207.163C1199.48 207.163 1199.73 207.271 1199.93 207.488C1200.15 207.704 1200.25 207.968 1200.25 208.28C1200.25 208.592 1200.15 208.856 1199.93 209.072C1199.73 209.287 1199.47 209.395 1199.17 209.395ZM1199.96 210.998L1199.95 220.862L1198.32 220.86L1198.33 210.996L1199.96 210.998ZM1204.4 207.546L1204.38 220.866L1202.75 220.864L1202.76 207.544L1204.4 207.546Z" fill="#565656"/>
<circle cx="1171.47" cy="150.89" r="16.1257" fill="#868686"/>
<path d="M1166.53 151.15L1170.17 154.791L1177.46 146.988" stroke="white" stroke-width="1.72775" stroke-linecap="round" stroke-linejoin="round"/>
<ellipse cx="1184.72" cy="77.1731" rx="9.79058" ry="10.3665" fill="#FECB00"/>
<path d="M1180.4 59.1279H1166C1164.41 59.1279 1163.12 60.5031 1163.12 62.1995V82.1646C1163.12 83.8609 1164.41 85.2361 1166 85.2361H1180.4C1181.99 85.2361 1183.28 83.8609 1183.28 82.1646V62.1995C1183.28 60.5031 1181.99 59.1279 1180.4 59.1279Z" stroke="#33363F" stroke-width="1.72775"/>
<path d="M1168.88 66.8066H1177.52" stroke="#33363F" stroke-width="1.72775" stroke-linecap="round"/>
<path d="M1168.88 72.9482H1177.52" stroke="#33363F" stroke-width="1.72775" stroke-linecap="round"/>
<path d="M1168.88 79.0928H1174.64" stroke="#33363F" stroke-width="1.72775" stroke-linecap="round"/>
<path d="M1131.74 105.916C1133.22 105.916 1134.52 106.203 1135.62 106.776C1136.74 107.336 1137.6 108.15 1138.2 109.216C1138.82 110.27 1139.12 111.503 1139.12 112.916C1139.12 114.33 1138.82 115.556 1138.2 116.596C1137.6 117.636 1136.74 118.436 1135.62 118.996C1134.52 119.543 1133.22 119.816 1131.74 119.816H1127.2V105.916H1131.74ZM1131.74 117.956C1133.37 117.956 1134.62 117.516 1135.48 116.636C1136.35 115.756 1136.78 114.516 1136.78 112.916C1136.78 111.303 1136.35 110.043 1135.48 109.136C1134.62 108.23 1133.37 107.776 1131.74 107.776H1129.48V117.956H1131.74ZM1151.48 114.036C1151.48 114.45 1151.46 114.823 1151.4 115.156H1142.98C1143.05 116.036 1143.38 116.743 1143.96 117.276C1144.55 117.81 1145.27 118.076 1146.12 118.076C1147.35 118.076 1148.22 117.563 1148.72 116.536H1151.18C1150.85 117.55 1150.24 118.383 1149.36 119.036C1148.5 119.676 1147.42 119.996 1146.12 119.996C1145.07 119.996 1144.12 119.763 1143.28 119.296C1142.46 118.816 1141.8 118.15 1141.32 117.296C1140.86 116.43 1140.62 115.43 1140.62 114.296C1140.62 113.163 1140.85 112.17 1141.3 111.316C1141.77 110.45 1142.42 109.783 1143.24 109.316C1144.08 108.85 1145.04 108.616 1146.12 108.616C1147.16 108.616 1148.09 108.843 1148.9 109.296C1149.72 109.75 1150.35 110.39 1150.8 111.216C1151.26 112.03 1151.48 112.97 1151.48 114.036ZM1149.1 113.316C1149.09 112.476 1148.79 111.803 1148.2 111.296C1147.62 110.79 1146.89 110.536 1146.02 110.536C1145.24 110.536 1144.56 110.79 1144 111.296C1143.44 111.79 1143.11 112.463 1143 113.316H1149.1ZM1156.01 105.016V119.816H1153.73V105.016H1156.01ZM1160.16 107.336C1159.75 107.336 1159.4 107.196 1159.12 106.916C1158.84 106.636 1158.7 106.29 1158.7 105.876C1158.7 105.463 1158.84 105.116 1159.12 104.836C1159.4 104.556 1159.75 104.416 1160.16 104.416C1160.56 104.416 1160.9 104.556 1161.18 104.836C1161.46 105.116 1161.6 105.463 1161.6 105.876C1161.6 106.29 1161.46 106.636 1161.18 106.916C1160.9 107.196 1160.56 107.336 1160.16 107.336ZM1161.28 108.796V119.816H1159V108.796H1161.28ZM1168.53 117.776L1171.65 108.796H1174.07L1169.87 119.816H1167.15L1162.97 108.796H1165.41L1168.53 117.776ZM1185.9 114.036C1185.9 114.45 1185.87 114.823 1185.82 115.156H1177.4C1177.46 116.036 1177.79 116.743 1178.38 117.276C1178.96 117.81 1179.68 118.076 1180.54 118.076C1181.76 118.076 1182.63 117.563 1183.14 116.536H1185.6C1185.26 117.55 1184.66 118.383 1183.78 119.036C1182.91 119.676 1181.83 119.996 1180.54 119.996C1179.48 119.996 1178.54 119.763 1177.7 119.296C1176.87 118.816 1176.22 118.15 1175.74 117.296C1175.27 116.43 1175.04 115.43 1175.04 114.296C1175.04 113.163 1175.26 112.17 1175.72 111.316C1176.18 110.45 1176.83 109.783 1177.66 109.316C1178.5 108.85 1179.46 108.616 1180.54 108.616C1181.58 108.616 1182.5 108.843 1183.32 109.296C1184.13 109.75 1184.76 110.39 1185.22 111.216C1185.67 112.03 1185.9 112.97 1185.9 114.036ZM1183.52 113.316C1183.5 112.476 1183.2 111.803 1182.62 111.296C1182.03 110.79 1181.3 110.536 1180.44 110.536C1179.65 110.536 1178.98 110.79 1178.42 111.296C1177.86 111.79 1177.52 112.463 1177.42 113.316H1183.52ZM1190.42 110.396C1190.75 109.836 1191.19 109.403 1191.74 109.096C1192.3 108.776 1192.96 108.616 1193.72 108.616V110.976H1193.14C1192.25 110.976 1191.57 111.203 1191.1 111.656C1190.65 112.11 1190.42 112.896 1190.42 114.016V119.816H1188.14V108.796H1190.42V110.396ZM1205.92 114.036C1205.92 114.45 1205.89 114.823 1205.84 115.156H1197.42C1197.48 116.036 1197.81 116.743 1198.4 117.276C1198.98 117.81 1199.7 118.076 1200.56 118.076C1201.78 118.076 1202.65 117.563 1203.16 116.536H1205.62C1205.28 117.55 1204.68 118.383 1203.8 119.036C1202.93 119.676 1201.85 119.996 1200.56 119.996C1199.5 119.996 1198.56 119.763 1197.72 119.296C1196.89 118.816 1196.24 118.15 1195.76 117.296C1195.29 116.43 1195.06 115.43 1195.06 114.296C1195.06 113.163 1195.28 112.17 1195.74 111.316C1196.2 110.45 1196.85 109.783 1197.68 109.316C1198.52 108.85 1199.48 108.616 1200.56 108.616C1201.6 108.616 1202.52 108.843 1203.34 109.296C1204.15 109.75 1204.78 110.39 1205.24 111.216C1205.69 112.03 1205.92 112.97 1205.92 114.036ZM1203.54 113.316C1203.52 112.476 1203.22 111.803 1202.64 111.296C1202.05 110.79 1201.32 110.536 1200.46 110.536C1199.67 110.536 1199 110.79 1198.44 111.296C1197.88 111.79 1197.54 112.463 1197.44 113.316H1203.54ZM1207.4 114.256C1207.4 113.15 1207.63 112.17 1208.08 111.316C1208.55 110.463 1209.17 109.803 1209.96 109.336C1210.76 108.856 1211.65 108.616 1212.62 108.616C1213.34 108.616 1214.05 108.776 1214.74 109.096C1215.45 109.403 1216.01 109.816 1216.42 110.336V105.016H1218.72V119.816H1216.42V118.156C1216.05 118.69 1215.53 119.13 1214.86 119.476C1214.21 119.823 1213.45 119.996 1212.6 119.996C1211.64 119.996 1210.76 119.756 1209.96 119.276C1209.17 118.783 1208.55 118.103 1208.08 117.236C1207.63 116.356 1207.4 115.363 1207.4 114.256ZM1216.42 114.296C1216.42 113.536 1216.26 112.876 1215.94 112.316C1215.63 111.756 1215.23 111.33 1214.72 111.036C1214.21 110.743 1213.67 110.596 1213.08 110.596C1212.49 110.596 1211.95 110.743 1211.44 111.036C1210.93 111.316 1210.52 111.736 1210.2 112.296C1209.89 112.843 1209.74 113.496 1209.74 114.256C1209.74 115.016 1209.89 115.683 1210.2 116.256C1210.52 116.83 1210.93 117.27 1211.44 117.576C1211.96 117.87 1212.51 118.016 1213.08 118.016C1213.67 118.016 1214.21 117.87 1214.72 117.576C1215.23 117.283 1215.63 116.856 1215.94 116.296C1216.26 115.723 1216.42 115.056 1216.42 114.296Z" fill="#1B3042"/>
</svg>
